<?xml version="1.0" encoding="UTF-8"?>
<svg version="1.1" viewBox="0 0 202 39" xml:space="preserve" xmlns="http://www.w3.org/2000/svg" xmlns:xlink="http://www.w3.org/1999/xlink"><defs><linearGradient id="b" x2="202" y1="19.5" y2="19.5" gradientUnits="userSpaceOnUse"><stop stop-color="#ff738f" offset=".10811"/><stop stop-color="#fff180" offset=".229"/><stop stop-color="#71f640" offset=".31819"/><stop stop-color="#51d2ff" offset=".48109"/><stop stop-color="#c78eff" offset=".6621"/><stop stop-color="#e116b8" offset=".84357"/><stop stop-color="#ff007e" offset=".90713"/></linearGradient><clipPath id="i"><path transform="scale(1.143 .8749)" d="m4.4029 38.986h7.6352v-11.156c1.3259 0.13716 2.5603 0.18288 3.6576 0.18288 8.7782 0 13.396-4.1148 13.396-11.979 0-7.2694-4.892-10.881-14.63-10.881-3.5204 0-6.9037 0.2286-10.058 0.6858zm7.6352-27.66c0.91439-0.18288 1.8745-0.27432 2.8803-0.27432 4.6177 0 6.9037 1.8288 6.9037 5.4406 0 3.6576-2.5146 5.8064-6.9037 5.8064-0.96011 0-1.9202-0.09144-2.8803-0.2286zm24.917 0.54864h13.579v-6.2636h-21.351v33.375h21.351v-6.2636h-13.579v-8.1381h12.664v-5.8978h-12.664zm25.42 14.767c2.5603 0 3.5204 0.73152 4.3891 3.2918l3.1547 9.0525h8.0009l-3.5204-9.3725c-1.0058-2.7432-2.286-4.572-3.8862-5.4406v-0.09144c3.8862-1.4173 6.4922-4.9377 6.4922-9.0068 0-6.355-4.4348-9.9212-13.579-9.9212-3.9776 0-7.6352 0.2286-10.973 0.6858v33.147h7.6352v-12.344zm-2.286-15.316c0.82296-0.18288 1.7831-0.27432 2.8803-0.27432 4.1605 0 6.2636 1.6002 6.2636 4.7548 0 3.2461-2.3317 5.1206-6.5836 5.1206h-2.5603zm18.379-5.715v33.375h7.7723v-13.67h12.207v-5.8521h-12.207v-7.5895h13.122v-6.2636zm30.358 6.2636h13.579v-6.2636h-21.351v33.375h21.351v-6.2636h-13.579v-8.1381h12.664v-5.8978h-12.664zm20.94 10.424c0-7.0866 3.2461-10.881 8.7325-10.881 2.3774 0 4.9834 0.50292 7.7724 1.463v-6.6751c-2.606-0.6858-5.4864-1.0516-8.6868-1.0516-9.9212 0-15.773 6.3093-15.773 17.145 0 11.018 6.0807 17.145 16.093 17.145 3.0632 0 5.9436-0.36576 8.7325-1.0516v-6.5836c-2.7889 0.96011-5.3949 1.463-7.8181 1.463-5.4864 0-9.0525-4.0233-9.0525-10.973zm42.565-16.688h-25.603v6.4465h8.8239v26.929h7.9552v-26.929h8.8239z" stroke-linejoin="round" stroke-miterlimit="4.6" stroke-width=".955" aria-label="PERFECT"/></clipPath><filter id="f" x="-.045456" y="-.22261" width="1.0909" height="1.4452" color-interpolation-filters="sRGB"><feGaussianBlur stdDeviation="3.1805297"/></filter><filter id="e" x="-.028489" y="-.13952" width="1.057" height="1.279" color-interpolation-filters="sRGB"><feGaussianBlur stdDeviation="1.9933528"/></filter><filter id="d" x="-.018929" y="-.0927" width="1.0379" height="1.1854" color-interpolation-filters="sRGB"><feGaussianBlur stdDeviation="1.3244471"/></filter><filter id="c" x="-.04099" y="-.20074" width="1.082" height="1.4015" color-interpolation-filters="sRGB"><feGaussianBlur result="blur" stdDeviation="2.86809"/><feComposite in="SourceGraphic" in2="blur" operator="atop" result="composite1"/><feComposite in2="composite1" operator="in" result="composite2"/><feComposite in2="composite2" operator="in" result="composite3"/></filter><linearGradient id="a" x1="101" x2="101" y1="-81.5" y2="120.5" gradientUnits="userSpaceOnUse"><stop stop-color="#fff" offset=".43782"/><stop stop-color="#fff" stop-opacity="0" offset=".5794"/></linearGradient><clipPath id="h"><path transform="scale(1.143 .8749)" d="m4.4029 38.986h7.6352v-11.156c1.3259 0.13716 2.5603 0.18288 3.6576 0.18288 8.7782 0 13.396-4.1148 13.396-11.979 0-7.2694-4.892-10.881-14.63-10.881-3.5204 0-6.9037 0.2286-10.058 0.6858zm7.6352-27.66c0.91439-0.18288 1.8745-0.27432 2.8803-0.27432 4.6177 0 6.9037 1.8288 6.9037 5.4406 0 3.6576-2.5146 5.8064-6.9037 5.8064-0.96011 0-1.9202-0.09144-2.8803-0.2286zm24.917 0.54864h13.579v-6.2636h-21.351v33.375h21.351v-6.2636h-13.579v-8.1381h12.664v-5.8978h-12.664zm25.42 14.767c2.5603 0 3.5204 0.73152 4.3891 3.2918l3.1547 9.0525h8.0009l-3.5204-9.3725c-1.0058-2.7432-2.286-4.572-3.8862-5.4406v-0.09144c3.8862-1.4173 6.4922-4.9377 6.4922-9.0068 0-6.355-4.4348-9.9212-13.579-9.9212-3.9776 0-7.6352 0.2286-10.973 0.6858v33.147h7.6352v-12.344zm-2.286-15.316c0.82296-0.18288 1.7831-0.27432 2.8803-0.27432 4.1605 0 6.2636 1.6002 6.2636 4.7548 0 3.2461-2.3317 5.1206-6.5836 5.1206h-2.5603zm18.379-5.715v33.375h7.7723v-13.67h12.207v-5.8521h-12.207v-7.5895h13.122v-6.2636zm30.358 6.2636h13.579v-6.2636h-21.351v33.375h21.351v-6.2636h-13.579v-8.1381h12.664v-5.8978h-12.664zm20.94 10.424c0-7.0866 3.2461-10.881 8.7325-10.881 2.3774 0 4.9834 0.50292 7.7724 1.463v-6.6751c-2.606-0.6858-5.4864-1.0516-8.6868-1.0516-9.9212 0-15.773 6.3093-15.773 17.145 0 11.018 6.0807 17.145 16.093 17.145 3.0632 0 5.9436-0.36576 8.7325-1.0516v-6.5836c-2.7889 0.96011-5.3949 1.463-7.8181 1.463-5.4864 0-9.0525-4.0233-9.0525-10.973zm42.565-16.688h-25.603v6.4465h8.8239v26.929h7.9552v-26.929h8.8239z" stroke-linejoin="round" stroke-miterlimit="4.6" stroke-width=".955" aria-label="PERFECT"/></clipPath><clipPath id="g"><path transform="scale(1.143 .8749)" d="m4.4029 38.986h7.6352v-11.156c1.3259 0.13716 2.5603 0.18288 3.6576 0.18288 8.7782 0 13.396-4.1148 13.396-11.979 0-7.2694-4.892-10.881-14.63-10.881-3.5204 0-6.9037 0.2286-10.058 0.6858zm7.6352-27.66c0.91439-0.18288 1.8745-0.27432 2.8803-0.27432 4.6177 0 6.9037 1.8288 6.9037 5.4406 0 3.6576-2.5146 5.8064-6.9037 5.8064-0.96011 0-1.9202-0.09144-2.8803-0.2286zm24.917 0.54864h13.579v-6.2636h-21.351v33.375h21.351v-6.2636h-13.579v-8.1381h12.664v-5.8978h-12.664zm25.42 14.767c2.5603 0 3.5204 0.73152 4.3891 3.2918l3.1547 9.0525h8.0009l-3.5204-9.3725c-1.0058-2.7432-2.286-4.572-3.8862-5.4406v-0.09144c3.8862-1.4173 6.4922-4.9377 6.4922-9.0068 0-6.355-4.4348-9.9212-13.579-9.9212-3.9776 0-7.6352 0.2286-10.973 0.6858v33.147h7.6352v-12.344zm-2.286-15.316c0.82296-0.18288 1.7831-0.27432 2.8803-0.27432 4.1605 0 6.2636 1.6002 6.2636 4.7548 0 3.2461-2.3317 5.1206-6.5836 5.1206h-2.5603zm18.379-5.715v33.375h7.7723v-13.67h12.207v-5.8521h-12.207v-7.5895h13.122v-6.2636zm30.358 6.2636h13.579v-6.2636h-21.351v33.375h21.351v-6.2636h-13.579v-8.1381h12.664v-5.8978h-12.664zm20.94 10.424c0-7.0866 3.2461-10.881 8.7325-10.881 2.3774 0 4.9834 0.50292 7.7724 1.463v-6.6751c-2.606-0.6858-5.4864-1.0516-8.6868-1.0516-9.9212 0-15.773 6.3093-15.773 17.145 0 11.018 6.0807 17.145 16.093 17.145 3.0632 0 5.9436-0.36576 8.7325-1.0516v-6.5836c-2.7889 0.96011-5.3949 1.463-7.8181 1.463-5.4864 0-9.0525-4.0233-9.0525-10.973zm42.565-16.688h-25.603v6.4465h8.8239v26.929h7.9552v-26.929h8.8239z" stroke-linejoin="round" stroke-miterlimit="4.6" stroke-width=".955" aria-label="PERFECT"/></clipPath></defs><g stroke-linejoin="round" stroke-miterlimit="4.6"><path transform="scale(1.143 .8749)" d="m4.4029 38.986h7.6352v-11.156c1.3259 0.13716 2.5603 0.18288 3.6576 0.18288 8.7782 0 13.396-4.1148 13.396-11.979 0-7.2694-4.892-10.881-14.63-10.881-3.5204 0-6.9037 0.2286-10.058 0.6858zm7.6352-27.66c0.91439-0.18288 1.8745-0.27432 2.8803-0.27432 4.6177 0 6.9037 1.8288 6.9037 5.4406 0 3.6576-2.5146 5.8064-6.9037 5.8064-0.96011 0-1.9202-0.09144-2.8803-0.2286zm24.917 0.54864h13.579v-6.2636h-21.351v33.375h21.351v-6.2636h-13.579v-8.1381h12.664v-5.8978h-12.664zm25.42 14.767c2.5603 0 3.5204 0.73152 4.3891 3.2918l3.1547 9.0525h8.0009l-3.5204-9.3725c-1.0058-2.7432-2.286-4.572-3.8862-5.4406v-0.09144c3.8862-1.4173 6.4922-4.9377 6.4922-9.0068 0-6.355-4.4348-9.9212-13.579-9.9212-3.9776 0-7.6352 0.2286-10.973 0.6858v33.147h7.6352v-12.344zm-2.286-15.316c0.82296-0.18288 1.7831-0.27432 2.8803-0.27432 4.1605 0 6.2636 1.6002 6.2636 4.7548 0 3.2461-2.3317 5.1206-6.5836 5.1206h-2.5603zm18.379-5.715v33.375h7.7723v-13.67h12.207v-5.8521h-12.207v-7.5895h13.122v-6.2636zm30.358 6.2636h13.579v-6.2636h-21.351v33.375h21.351v-6.2636h-13.579v-8.1381h12.664v-5.8978h-12.664zm20.94 10.424c0-7.0866 3.2461-10.881 8.7325-10.881 2.3774 0 4.9834 0.50292 7.7724 1.463v-6.6751c-2.606-0.6858-5.4864-1.0516-8.6868-1.0516-9.9212 0-15.773 6.3093-15.773 17.145 0 11.018 6.0807 17.145 16.093 17.145 3.0632 0 5.9436-0.36576 8.7325-1.0516v-6.5836c-2.7889 0.96011-5.3949 1.463-7.8181 1.463-5.4864 0-9.0525-4.0233-9.0525-10.973zm42.565-16.688h-25.603v6.4465h8.8239v26.929h7.9552v-26.929h8.8239z" fill="#6f00c9" filter="url(#f)" stroke-width=".955" aria-label="PERFECT"/><path transform="scale(1.143 .8749)" d="m4.4029 38.986h7.6352v-11.156c1.3259 0.13716 2.5603 0.18288 3.6576 0.18288 8.7782 0 13.396-4.1148 13.396-11.979 0-7.2694-4.892-10.881-14.63-10.881-3.5204 0-6.9037 0.2286-10.058 0.6858zm7.6352-27.66c0.91439-0.18288 1.8745-0.27432 2.8803-0.27432 4.6177 0 6.9037 1.8288 6.9037 5.4406 0 3.6576-2.5146 5.8064-6.9037 5.8064-0.96011 0-1.9202-0.09144-2.8803-0.2286zm24.917 0.54864h13.579v-6.2636h-21.351v33.375h21.351v-6.2636h-13.579v-8.1381h12.664v-5.8978h-12.664zm25.42 14.767c2.5603 0 3.5204 0.73152 4.3891 3.2918l3.1547 9.0525h8.0009l-3.5204-9.3725c-1.0058-2.7432-2.286-4.572-3.8862-5.4406v-0.09144c3.8862-1.4173 6.4922-4.9377 6.4922-9.0068 0-6.355-4.4348-9.9212-13.579-9.9212-3.9776 0-7.6352 0.2286-10.973 0.6858v33.147h7.6352v-12.344zm-2.286-15.316c0.82296-0.18288 1.7831-0.27432 2.8803-0.27432 4.1605 0 6.2636 1.6002 6.2636 4.7548 0 3.2461-2.3317 5.1206-6.5836 5.1206h-2.5603zm18.379-5.715v33.375h7.7723v-13.67h12.207v-5.8521h-12.207v-7.5895h13.122v-6.2636zm30.358 6.2636h13.579v-6.2636h-21.351v33.375h21.351v-6.2636h-13.579v-8.1381h12.664v-5.8978h-12.664zm20.94 10.424c0-7.0866 3.2461-10.881 8.7325-10.881 2.3774 0 4.9834 0.50292 7.7724 1.463v-6.6751c-2.606-0.6858-5.4864-1.0516-8.6868-1.0516-9.9212 0-15.773 6.3093-15.773 17.145 0 11.018 6.0807 17.145 16.093 17.145 3.0632 0 5.9436-0.36576 8.7325-1.0516v-6.5836c-2.7889 0.96011-5.3949 1.463-7.8181 1.463-5.4864 0-9.0525-4.0233-9.0525-10.973zm42.565-16.688h-25.603v6.4465h8.8239v26.929h7.9552v-26.929h8.8239z" fill="#6f00c9" filter="url(#e)" stroke-width=".955" aria-label="PERFECT"/><path transform="scale(1.143 .8749)" d="m4.4029 38.986h7.6352v-11.156c1.3259 0.13716 2.5603 0.18288 3.6576 0.18288 8.7782 0 13.396-4.1148 13.396-11.979 0-7.2694-4.892-10.881-14.63-10.881-3.5204 0-6.9037 0.2286-10.058 0.6858zm7.6352-27.66c0.91439-0.18288 1.8745-0.27432 2.8803-0.27432 4.6177 0 6.9037 1.8288 6.9037 5.4406 0 3.6576-2.5146 5.8064-6.9037 5.8064-0.96011 0-1.9202-0.09144-2.8803-0.2286zm24.917 0.54864h13.579v-6.2636h-21.351v33.375h21.351v-6.2636h-13.579v-8.1381h12.664v-5.8978h-12.664zm25.42 14.767c2.5603 0 3.5204 0.73152 4.3891 3.2918l3.1547 9.0525h8.0009l-3.5204-9.3725c-1.0058-2.7432-2.286-4.572-3.8862-5.4406v-0.09144c3.8862-1.4173 6.4922-4.9377 6.4922-9.0068 0-6.355-4.4348-9.9212-13.579-9.9212-3.9776 0-7.6352 0.2286-10.973 0.6858v33.147h7.6352v-12.344zm-2.286-15.316c0.82296-0.18288 1.7831-0.27432 2.8803-0.27432 4.1605 0 6.2636 1.6002 6.2636 4.7548 0 3.2461-2.3317 5.1206-6.5836 5.1206h-2.5603zm18.379-5.715v33.375h7.7723v-13.67h12.207v-5.8521h-12.207v-7.5895h13.122v-6.2636zm30.358 6.2636h13.579v-6.2636h-21.351v33.375h21.351v-6.2636h-13.579v-8.1381h12.664v-5.8978h-12.664zm20.94 10.424c0-7.0866 3.2461-10.881 8.7325-10.881 2.3774 0 4.9834 0.50292 7.7724 1.463v-6.6751c-2.606-0.6858-5.4864-1.0516-8.6868-1.0516-9.9212 0-15.773 6.3093-15.773 17.145 0 11.018 6.0807 17.145 16.093 17.145 3.0632 0 5.9436-0.36576 8.7325-1.0516v-6.5836c-2.7889 0.96011-5.3949 1.463-7.8181 1.463-5.4864 0-9.0525-4.0233-9.0525-10.973zm42.565-16.688h-25.603v6.4465h8.8239v26.929h7.9552v-26.929h8.8239z" fill="#6f00c9" filter="url(#d)" stroke-width=".955" aria-label="PERFECT"/><path transform="scale(1.143 .8749)" d="m4.4029 38.986h7.6352v-11.156c1.3259 0.13716 2.5603 0.18288 3.6576 0.18288 8.7782 0 13.396-4.1148 13.396-11.979 0-7.2694-4.892-10.881-14.63-10.881-3.5204 0-6.9037 0.2286-10.058 0.6858zm7.6352-27.66c0.91439-0.18288 1.8745-0.27432 2.8803-0.27432 4.6177 0 6.9037 1.8288 6.9037 5.4406 0 3.6576-2.5146 5.8064-6.9037 5.8064-0.96011 0-1.9202-0.09144-2.8803-0.2286zm24.917 0.54864h13.579v-6.2636h-21.351v33.375h21.351v-6.2636h-13.579v-8.1381h12.664v-5.8978h-12.664zm25.42 14.767c2.5603 0 3.5204 0.73152 4.3891 3.2918l3.1547 9.0525h8.0009l-3.5204-9.3725c-1.0058-2.7432-2.286-4.572-3.8862-5.4406v-0.09144c3.8862-1.4173 6.4922-4.9377 6.4922-9.0068 0-6.355-4.4348-9.9212-13.579-9.9212-3.9776 0-7.6352 0.2286-10.973 0.6858v33.147h7.6352v-12.344zm-2.286-15.316c0.82296-0.18288 1.7831-0.27432 2.8803-0.27432 4.1605 0 6.2636 1.6002 6.2636 4.7548 0 3.2461-2.3317 5.1206-6.5836 5.1206h-2.5603zm18.379-5.715v33.375h7.7723v-13.67h12.207v-5.8521h-12.207v-7.5895h13.122v-6.2636zm30.358 6.2636h13.579v-6.2636h-21.351v33.375h21.351v-6.2636h-13.579v-8.1381h12.664v-5.8978h-12.664zm20.94 10.424c0-7.0866 3.2461-10.881 8.7325-10.881 2.3774 0 4.9834 0.50292 7.7724 1.463v-6.6751c-2.606-0.6858-5.4864-1.0516-8.6868-1.0516-9.9212 0-15.773 6.3093-15.773 17.145 0 11.018 6.0807 17.145 16.093 17.145 3.0632 0 5.9436-0.36576 8.7325-1.0516v-6.5836c-2.7889 0.96011-5.3949 1.463-7.8181 1.463-5.4864 0-9.0525-4.0233-9.0525-10.973zm42.565-16.688h-25.603v6.4465h8.8239v26.929h7.9552v-26.929h8.8239z" stroke-width="1.0916" aria-label="PERFECT"/><path transform="scale(1.143 .8749)" d="m4.4029 38.986h7.6352v-11.156c1.3259 0.13716 2.5603 0.18288 3.6576 0.18288 8.7782 0 13.396-4.1148 13.396-11.979 0-7.2694-4.892-10.881-14.63-10.881-3.5204 0-6.9037 0.2286-10.058 0.6858zm7.6352-27.66c0.91439-0.18288 1.8745-0.27432 2.8803-0.27432 4.6177 0 6.9037 1.8288 6.9037 5.4406 0 3.6576-2.5146 5.8064-6.9037 5.8064-0.96011 0-1.9202-0.09144-2.8803-0.2286zm24.917 0.54864h13.579v-6.2636h-21.351v33.375h21.351v-6.2636h-13.579v-8.1381h12.664v-5.8978h-12.664zm25.42 14.767c2.5603 0 3.5204 0.73152 4.3891 3.2918l3.1547 9.0525h8.0009l-3.5204-9.3725c-1.0058-2.7432-2.286-4.572-3.8862-5.4406v-0.09144c3.8862-1.4173 6.4922-4.9377 6.4922-9.0068 0-6.355-4.4348-9.9212-13.579-9.9212-3.9776 0-7.6352 0.2286-10.973 0.6858v33.147h7.6352v-12.344zm-2.286-15.316c0.82296-0.18288 1.7831-0.27432 2.8803-0.27432 4.1605 0 6.2636 1.6002 6.2636 4.7548 0 3.2461-2.3317 5.1206-6.5836 5.1206h-2.5603zm18.379-5.715v33.375h7.7723v-13.67h12.207v-5.8521h-12.207v-7.5895h13.122v-6.2636zm30.358 6.2636h13.579v-6.2636h-21.351v33.375h21.351v-6.2636h-13.579v-8.1381h12.664v-5.8978h-12.664zm20.94 10.424c0-7.0866 3.2461-10.881 8.7325-10.881 2.3774 0 4.9834 0.50292 7.7724 1.463v-6.6751c-2.606-0.6858-5.4864-1.0516-8.6868-1.0516-9.9212 0-15.773 6.3093-15.773 17.145 0 11.018 6.0807 17.145 16.093 17.145 3.0632 0 5.9436-0.36576 8.7325-1.0516v-6.5836c-2.7889 0.96011-5.3949 1.463-7.8181 1.463-5.4864 0-9.0525-4.0233-9.0525-10.973zm42.565-16.688h-25.603v6.4465h8.8239v26.929h7.9552v-26.929h8.8239z" fill="#fff" filter="url(#c)" stroke-width=".955" aria-label="PERFECT"/><rect width="202" height="39" clip-path="url(#i)" fill="#fff" stroke-width=".97234" style="mix-blend-mode:difference"/><rect width="202" height="39" clip-path="url(#g)" fill="url(#b)" stroke-width=".97234" style="mix-blend-mode:lighten"/><rect width="202" height="39" clip-path="url(#h)" fill="url(#a)" stroke-width=".95768" style="mix-blend-mode:normal"/></g></svg>
