<?xml version="1.0" encoding="UTF-8"?>
<svg version="1.1" viewBox="0 0 81 81" xmlns="http://www.w3.org/2000/svg" xmlns:xlink="http://www.w3.org/1999/xlink">
<defs>
<clipPath id="c">
<path d="m40.5 1a39.5 39.5 0 0 0-39.5 39.5 39.5 39.5 0 0 0 39.5 39.5 39.5 39.5 0 0 0 39.5-39.5 39.5 39.5 0 0 0-39.5-39.5zm0 6.5a33 33 0 0 1 33 33 33 33 0 0 1-33 33 33 33 0 0 1-33-33 33 33 0 0 1 33-33z"/>
</clipPath>
<clipPath id="b">
<path d="m40.5 1a39.5 39.5 0 0 0-39.5 39.5 39.5 39.5 0 0 0 39.5 39.5 39.5 39.5 0 0 0 39.5-39.5 39.5 39.5 0 0 0-39.5-39.5zm0 6.5a33 33 0 0 1 33 33 33 33 0 0 1-33 33 33 33 0 0 1-33-33 33 33 0 0 1 33-33z"/>
</clipPath>
<clipPath id="d">
<path d="m40.5 1a39.5 39.5 0 0 0-39.5 39.5 39.5 39.5 0 0 0 39.5 39.5 39.5 39.5 0 0 0 39.5-39.5 39.5 39.5 0 0 0-39.5-39.5zm0 6.5a33 33 0 0 1 33 33 33 33 0 0 1-33 33 33 33 0 0 1-33-33 33 33 0 0 1 33-33z"/>
</clipPath>
<linearGradient id="a" x1="40.5" x2="40.5" y1="79" y2="5" gradientUnits="userSpaceOnUse">
<stop stop-color="#ffb164" offset="0"/>
<stop stop-color="#fff5c2" offset="1"/>
</linearGradient>
</defs>
<g>
<circle cx="40.5" cy="40.5" r="35" fill="#e3007e" fill-opacity=".50196"/>
<circle cx="40.5" cy="40.5" r="39.5" clip-path="url(#d)" fill="#fff"/>
<ellipse cx="40.5" cy="44" rx="37" ry="40" clip-path="url(#b)" fill="url(#a)"/>
<ellipse cx="40.5" cy="43.5" rx="35" ry="33.5" clip-path="url(#c)" fill="#fff"/>
<path d="m40.5 1.5a39.001 39.001 0 0 0-39 39 39.001 39.001 0 0 0 39 39 39.001 39.001 0 0 0 39-39 39.001 39.001 0 0 0-39-39zm0 5.9238a33.076 33.076 0 0 1 33.076 33.076 33.076 33.076 0 0 1-33.076 33.076 33.076 33.076 0 0 1-33.076-33.076 33.076 33.076 0 0 1 33.076-33.076z" fill="none" stroke="#6f2f20" stroke-miterlimit="4.6"/>
</g>
</svg>
