<?xml version="1.0" encoding="UTF-8"?>
<svg version="1.1" viewBox="0 0 90 62" xml:space="preserve" xmlns="http://www.w3.org/2000/svg" xmlns:xlink="http://www.w3.org/1999/xlink"><defs><linearGradient id="c" x1="40.118" x2="40.118" y1="65.877" y2="6.4921" gradientUnits="userSpaceOnUse"><stop stop-color="#ffb164" offset="0"/><stop stop-color="#fff5c2" offset="1"/></linearGradient><linearGradient id="b" x1="40.32" x2="40.32" y1="79.879" y2="-9.3192" gradientUnits="userSpaceOnUse"><stop stop-color="#00e31c" stop-opacity=".25098" offset=".5"/><stop stop-color="#57ef37" stop-opacity=".43922" offset=".5"/></linearGradient><clipPath id="f"><path d="m12.377 8.4138a4.751 4.1324 0 0 0-4.2685 2.3181l-14.979 26.675a6.0919 5.2987 0 0 0-0.00612 4.6402l14.991 26.855a4.7386 4.1216 0 0 0 4.2624 2.3222h53.011a4.7448 4.127 0 0 0 4.2644-2.3201l14.987-26.765a6.0918 5.2987 0 0 0 0-4.6402l-14.987-26.765a4.7448 4.127 0 0 0-4.2644-2.3201zm0.73525 6.3088h51.541l14.488 25.097-14.488 25.097h-51.541l-14.488-25.097z"/></clipPath><clipPath id="e"><path d="m14.838 4.5392a4.5656 3.9712 0 0 0-4.102 2.2276l-14.394 25.635a5.8542 5.0919 0 0 0-0.00588 4.4592l14.406 25.807a4.5538 3.9608 0 0 0 4.0961 2.2316h50.943a4.5597 3.966 0 0 0 4.0981-2.2296l14.402-25.721a5.8542 5.0919 0 0 0 0-4.4592l-14.402-25.721a4.5597 3.966 0 0 0-4.0981-2.2296zm0.70656 6.0627h49.53l13.923 24.117-13.923 24.117h-49.53l-13.923-24.117z"/></clipPath><clipPath id="d"><path d="m19.652 0.9668a4.5434 3.9518 0 0 0-4.082 2.2168l-14.324 25.51a5.8257 5.0672 0 0 0-0.00585 4.4375l14.336 25.682a4.5316 3.9416 0 0 0 4.0762 2.2207h50.695a4.5375 3.9467 0 0 0 4.0781-2.2188l14.332-25.596a5.8257 5.0672 0 0 0 0-4.4375l-14.332-25.596a4.5375 3.9467 0 0 0-4.0781-2.2188zm0.70312 6.0332h49.289l13.855 24-13.855 24h-49.289l-13.855-24z"/></clipPath><linearGradient id="a" x1="40.484" x2="40.484" y1="64.989" y2="61.997" gradientUnits="userSpaceOnUse"><stop stop-color="#ffe2a4" offset="0"/><stop stop-color="#ffcea3" offset="1"/></linearGradient></defs><g transform="translate(4.5 -5)"><path transform="matrix(.87445 0 0 .87445 5.242 5.1492)" d="m68.502 7.8343 15.845 27.446-15.845 27.446h-56.364l-15.845-27.446 15.845-27.446z" fill="url(#b)" stroke="#6f2f20" stroke-linejoin="round" stroke-miterlimit="4.6" stroke-width="1.1436"/><rect transform="translate(-4.5 5)" x=".12848" y="-.12848" width="90" height="62" clip-path="url(#d)" fill="#fff"/><path transform="matrix(.99513 0 0 .99513 .38606 1.4496)" d="m68.981 10.989 16.549 28.663v26.219h-90.44v-26.219l16.549-28.663a8.8134 8.8134 150 0 1 7.6326-4.4067h42.077a8.8134 8.8134 30 0 1 7.6326 4.4067z" clip-path="url(#e)" fill="url(#c)" stroke-linejoin="round" stroke-miterlimit="4.6"/><path transform="matrix(.95631 0 0 .95631 3.3158 -2.0794)" d="m63.272 69.098h-48.778a3.0367 3.0367 30 0 1-2.6299-1.5184l-14.741-25.533a2.1825 2.1825 120 0 1 1.8901-3.2737h79.74a2.1825 2.1825 60 0 1 1.8901 3.2737l-14.741 25.533a3.0367 3.0367 150 0 1-2.6299 1.5184z" clip-path="url(#f)" fill="#fff" stroke-linejoin="round" stroke-miterlimit="4.6"/><rect x="17.5" y="62" width="46" height="3" fill="url(#a)"/><path transform="matrix(1.0235 0 0 .89026 -.76884 4.5915)" d="m69.07 4.0371 14.002 28.751a5.6918 5.6918 90 0 1 0 4.9842l-14.002 28.751a4.4332 4.4332 147.98 0 1-3.9856 2.4921h-49.528a4.4274 4.4274 32.05 0 1-3.9827-2.4935l-14.007-28.848a5.6918 5.6918 90.067 0 1 0.00584-4.9842l13.996-28.654a4.439 4.439 148.02 0 1 3.9886-2.4907h49.528a4.4332 4.4332 32.017 0 1 3.9856 2.4921z" fill="none" stroke="#6f2f20" stroke-linejoin="round" stroke-miterlimit="4.6" stroke-width=".97784"/><path transform="matrix(.87445 0 0 .87445 5.242 5.1492)" d="m68.502 7.8343 15.845 27.446-15.845 27.446h-56.364l-15.845-27.446 15.845-27.446z" fill="none" stroke="#6f2f20" stroke-linejoin="round" stroke-miterlimit="4.6" stroke-width="1.1436"/></g></svg>
