<?xml version="1.0" encoding="UTF-8"?>
<svg version="1.1" viewBox="0 0 960 113" xml:space="preserve" xmlns="http://www.w3.org/2000/svg" xmlns:xlink="http://www.w3.org/1999/xlink"><defs><linearGradient id="b" x1="53.374" x2="53.374" y1="4.7839" y2="89.019" gradientTransform="matrix(11.397 0 0 1.3752 -128.29 -7.9977)" gradientUnits="userSpaceOnUse"><stop offset="0"/><stop stop-opacity="0" offset="1"/></linearGradient><linearGradient id="c" x1="473.11" x2="473.11" y1="11.909" y2="61.164" gradientTransform="translate(0,1)" gradientUnits="userSpaceOnUse"><stop stop-color="#fce9a9" stop-opacity=".98824" offset="0"/><stop stop-color="#e4812b" offset="1"/></linearGradient><linearGradient id="a" x1="268.57" x2="268.57" y1="62.03" y2="45.335" gradientUnits="userSpaceOnUse"><stop stop-color="#e3822d" offset="0"/><stop stop-color="#f9e3a7" stop-opacity=".99216" offset="1"/></linearGradient><filter id="d" x="-.043586" y="-.16355" width="1.0872" height="1.3271" color-interpolation-filters="sRGB"><feGaussianBlur in="SourceGraphic" result="blur1" stdDeviation="0.379767"/><feColorMatrix in="blur1" result="colormatrix1" values="1 0 0 0 0 0 1 0 0 0 0 0 1 0 0 24.0059 28.7175 -33.5057 1 0 "/><feColorMatrix in="colormatrix1" result="colormatrix2" type="luminanceToAlpha"/><feComposite in2="blur1" k2="1" k3="12.917" operator="arithmetic" result="composite1"/><feGaussianBlur in="composite1" result="blur2" stdDeviation="0.774976"/><feSpecularLighting lighting-color="rgb(255,255,255)" result="lighting" specularConstant="1.96842" specularExponent="11" surfaceScale="6.52219"><feDistantLight azimuth="259" elevation="24"/></feSpecularLighting><feFlood flood-color="rgb(234,172,92)" flood-opacity="0" result="flood"/><feComposite in="lighting" in2="blur1" k2="1" k3="1" operator="arithmetic" result="composite2"/><feBlend in2="SourceGraphic" result="blend"/><feComposite in="blend" in2="SourceGraphic" k2="1" operator="in" result="composite3"/></filter></defs><g><rect width="960" height="113" fill="url(#b)"/><path d="m282 13a1.5002 1.5002 0 0 0-1.3106 0.76953l-16.57 29.73h-264.12v3h264.11l6.0742 11.215a1.5002 1.5002 0 0 0 1.3184 0.78516h418a1.5002 1.5002 0 0 0 1.3184-0.78516l6.0742-11.215h263.11v-3h-263.12l-16.57-29.73a1.5002 1.5002 0 0 0-1.3106-0.76953zm0.88086 3h395.24l16.17 29.012-5.6816 10.488h-416.21l-5.6816-10.49z" fill="none" stroke="#694e35" stroke-linejoin="round" stroke-miterlimit="4.6" stroke-width="3"/><path d="m282 12.5a1.5002 1.5002 0 0 0-1.3106 0.76953l-16.57 29.73h-264.12v3h264.11l6.0742 11.215a1.5002 1.5002 0 0 0 1.3184 0.78516h418a1.5002 1.5002 0 0 0 1.3184-0.78516l6.0742-11.215h263.11v-3h-263.12l-16.57-29.73a1.5002 1.5002 0 0 0-1.3106-0.76953zm0.88086 3h395.24l16.17 29.012-5.6816 10.488h-416.21l-5.6816-10.49z" fill="#fff"/><path d="m282 13.5a1.5002 1.5002 0 0 0-1.3106 0.76953l-16.57 29.73h-264.12v3h264.11l6.0742 11.215a1.5002 1.5002 0 0 0 1.3184 0.78516h418a1.5002 1.5002 0 0 0 1.3184-0.78516l6.0742-11.215h263.11v-3h-263.12l-16.57-29.73a1.5002 1.5002 0 0 0-1.3106-0.76953zm0.88086 3h395.24l16.17 29.012-5.6816 10.488h-416.21l-5.6816-10.49z" fill="url(#c)"/><path d="m272 56-1 2h419l-1-2" fill="#fedcbe"/><path transform="scale(1.1892 .84093)" d="m247.64 45.928c-1.4008-0.61004-3.0502-0.90376-4.9707-0.90376-3.6828 0-5.7163 1.7623-5.7163 4.5866 0 2.5983 1.5816 4.3381 5.3774 5.5356 1.4234 0.45188 1.9205 1.0393 1.9205 2.0335 0 1.1523-0.83599 1.7849-2.4402 1.7849-1.559 0-3.0276-0.47448-4.451-1.446v3.2761c1.3782 0.79079 2.9372 1.1749 4.677 1.1749 4.0895 0 6.1456-1.6268 6.1456-4.8577 0-2.7339-1.3782-4.2703-5.5356-5.5356-1.2201-0.40669-1.8301-1.0619-1.8301-1.9657 0-1.0845 0.70042-1.6268 2.0787-1.6268 1.6042 0 3.1858 0.3841 4.7448 1.1749zm4.3167 7.569c0-3.5021 1.6042-5.3774 4.3155-5.3774 1.1749 0 2.4628 0.24854 3.841 0.72301v-3.2987c-1.2879-0.33891-2.7113-0.51966-4.2929-0.51966-4.9029 0-7.795 3.118-7.795 8.4728 0 5.4452 3.005 8.4728 7.9531 8.4728 1.5138 0 2.9372-0.18075 4.3155-0.51966v-3.2536c-1.3782 0.47448-2.6661 0.72301-3.8636 0.72301-2.7113 0-4.4736-1.9883-4.4736-5.4226zm24.064 0c0-5.3096-2.9372-8.4728-7.7046-8.4728-4.7674 0-7.7272 3.1632-7.7272 8.4728 0 5.3096 2.9598 8.4728 7.7272 8.4728 4.7674 0 7.7046-3.1632 7.7046-8.4728zm-7.7046-5.3096c2.508 0 3.7732 1.7623 3.7732 5.3096s-1.2653 5.3096-3.7732 5.3096c-2.5305 0-3.7958-1.7623-3.7958-5.3096s1.2653-5.3096 3.7958-5.3096zm13.241 7.4561c1.2653 0 1.7397 0.36151 2.169 1.6268l1.559 4.4736h3.954l-1.7397-4.6318c-0.49707-1.3556-1.1297-2.2594-1.9205-2.6887v-0.04519c1.9205-0.70042 3.2084-2.4402 3.2084-4.451 0-3.1406-2.1916-4.9029-6.7104-4.9029-1.9657 0-3.7732 0.11297-5.4226 0.33891v16.381h3.7732v-6.1004zm-1.1297-7.569c0.4067-0.09038 0.88117-0.13556 1.4234-0.13556 2.0561 0 3.0954 0.79079 3.0954 2.3498 0 1.6042-1.1523 2.5305-3.2536 2.5305h-1.2653zm13.4 0.27113h6.7104v-3.0954h-10.551v16.494h10.551v-3.0954h-6.7104v-4.0218h6.2586v-2.9146h-6.2586z" fill="url(#a)" filter="url(#d)" stroke-linejoin="round" stroke-miterlimit="4.6" stroke-width=".5" aria-label="SCORE"/><path transform="scale(1.1892 .84093)" d="m247.64 45.928c-1.4008-0.61004-3.0502-0.90376-4.9707-0.90376-3.6828 0-5.7163 1.7623-5.7163 4.5866 0 2.5983 1.5816 4.3381 5.3774 5.5356 1.4234 0.45188 1.9205 1.0393 1.9205 2.0335 0 1.1523-0.83599 1.7849-2.4402 1.7849-1.559 0-3.0276-0.47448-4.451-1.446v3.2761c1.3782 0.79079 2.9372 1.1749 4.677 1.1749 4.0895 0 6.1456-1.6268 6.1456-4.8577 0-2.7339-1.3782-4.2703-5.5356-5.5356-1.2201-0.40669-1.8301-1.0619-1.8301-1.9657 0-1.0845 0.70042-1.6268 2.0787-1.6268 1.6042 0 3.1858 0.3841 4.7448 1.1749zm4.3167 7.569c0-3.5021 1.6042-5.3774 4.3155-5.3774 1.1749 0 2.4628 0.24854 3.841 0.72301v-3.2987c-1.2879-0.33891-2.7113-0.51966-4.2929-0.51966-4.9029 0-7.795 3.118-7.795 8.4728 0 5.4452 3.005 8.4728 7.9531 8.4728 1.5138 0 2.9372-0.18075 4.3155-0.51966v-3.2536c-1.3782 0.47448-2.6661 0.72301-3.8636 0.72301-2.7113 0-4.4736-1.9883-4.4736-5.4226zm24.064 0c0-5.3096-2.9372-8.4728-7.7046-8.4728-4.7674 0-7.7272 3.1632-7.7272 8.4728 0 5.3096 2.9598 8.4728 7.7272 8.4728 4.7674 0 7.7046-3.1632 7.7046-8.4728zm-7.7046-5.3096c2.508 0 3.7732 1.7623 3.7732 5.3096s-1.2653 5.3096-3.7732 5.3096c-2.5305 0-3.7958-1.7623-3.7958-5.3096s1.2653-5.3096 3.7958-5.3096zm13.241 7.4561c1.2653 0 1.7397 0.36151 2.169 1.6268l1.559 4.4736h3.954l-1.7397-4.6318c-0.49707-1.3556-1.1297-2.2594-1.9205-2.6887v-0.04519c1.9205-0.70042 3.2084-2.4402 3.2084-4.451 0-3.1406-2.1916-4.9029-6.7104-4.9029-1.9657 0-3.7732 0.11297-5.4226 0.33891v16.381h3.7732v-6.1004zm-1.1297-7.569c0.4067-0.09038 0.88117-0.13556 1.4234-0.13556 2.0561 0 3.0954 0.79079 3.0954 2.3498 0 1.6042-1.1523 2.5305-3.2536 2.5305h-1.2653zm13.4 0.27113h6.7104v-3.0954h-10.551v16.494h10.551v-3.0954h-6.7104v-4.0218h6.2586v-2.9146h-6.2586z" fill="none" stroke="#694e35" stroke-linejoin="round" stroke-miterlimit="4.6" stroke-width=".5" aria-label="SCORE"/></g></svg>
