<?xml version="1.0" encoding="UTF-8"?>
<svg version="1.1" viewBox="0 0 81 81" xmlns="http://www.w3.org/2000/svg" xmlns:xlink="http://www.w3.org/1999/xlink">
<defs>
<linearGradient id="a" x1="80.397" x2="38.397" y1="23.121" y2="-18.879" gradientUnits="userSpaceOnUse">
<stop stop-color="#ffb164" offset="0"/>
<stop stop-color="#fff5c2" offset="1"/>
</linearGradient>
<clipPath id="d">
<path d="m28.489-28.77a9.5003 9.5003 0 0 0-2.7813 6.7173v43.35a9.5003 9.5003 0 0 0 9.5 9.5h43.35a9.5003 9.5003 0 0 0 9.5-9.5v-43.35a9.5003 9.5003 0 0 0-9.5-9.5l-43.35-1e-6a9.5003 9.5003 0 0 0-6.7187 2.7827zm3.8647 4.321a1.2933 1.2933 0 0 1 1.1198-0.64668h46.849a1.2933 1.2933 0 0 1 1.2934 1.2934v46.849a1.2933 1.2933 0 0 1-1.2934 1.2934h-46.849a1.2933 1.2933 0 0 1-1.2934-1.2934v-46.849a1.2933 1.2933 0 0 1 0.17357-0.64668z"/>
</clipPath>
<clipPath id="c">
<path d="m29.245-28.014a9.3736 9.3736 0 0 0-2.7442 6.6277v42.772a9.3736 9.3736 0 0 0 9.3733 9.3733h42.772a9.3736 9.3736 0 0 0 9.3733-9.3733v-42.772a9.3736 9.3736 0 0 0-9.3733-9.3733h-42.772a9.3736 9.3736 0 0 0-6.6291 2.7456zm3.8131 4.2634a1.2761 1.2761 0 0 1 1.1049-0.63805h46.224a1.2761 1.2761 0 0 1 1.2761 1.2761v46.224a1.2761 1.2761 0 0 1-1.2761 1.2761h-46.224a1.2761 1.2761 0 0 1-1.2761-1.2761v-46.224a1.2761 1.2761 0 0 1 0.17125-0.63805z"/>
</clipPath>
<clipPath id="b">
<path d="m29.245-28.014a9.3736 9.3736 0 0 0-2.7442 6.6277v42.772a9.3736 9.3736 0 0 0 9.3733 9.3733h42.772a9.3736 9.3736 0 0 0 9.3733-9.3733v-42.772a9.3736 9.3736 0 0 0-9.3733-9.3733h-42.772a9.3736 9.3736 0 0 0-6.6291 2.7456zm3.8131 4.2634a1.2761 1.2761 0 0 1 1.1049-0.63805h46.224a1.2761 1.2761 0 0 1 1.2761 1.2761v46.224a1.2761 1.2761 0 0 1-1.2761 1.2761h-46.224a1.2761 1.2761 0 0 1-1.2761-1.2761v-46.224a1.2761 1.2761 0 0 1 0.17125-0.63805z"/>
</clipPath>
</defs>
<rect transform="rotate(45)" x="32.527" y="-24.749" width="49.497" height="49.497" fill="#208dfd" fill-opacity=".50196"/>
<rect transform="rotate(45)" x="25.102" y="-32.173" width="63.64" height="63.64" clip-path="url(#b)" fill="#fff"/>
<path transform="rotate(45)" d="m36.315-27.577h46.164a6.6164 6.6164 45 0 1 6.6164 6.6164v46.164a6.6164 6.6164 135 0 1-6.6164 6.6164h-46.164a6.6164 6.6164 45 0 1-6.6164-6.6164v-46.164a6.6164 6.6164 135 0 1 6.6164-6.6164z" clip-path="url(#c)" fill="url(#a)" stroke-linejoin="round" stroke-miterlimit="4.6" stroke-width="2.953"/>
<path transform="matrix(.69768 .69768 -.69768 .69768 .54 1.0667)" d="m35.974-25.102h45.431a3.8009 3.8009 45 0 1 3.8009 3.8009v45.431a3.8009 3.8009 135 0 1-3.8009 3.8009h-45.431a3.8009 3.8009 45 0 1-3.8009-3.8009v-45.431a3.8009 3.8009 135 0 1 3.8009-3.8009z" clip-path="url(#d)" fill="#fff" stroke-linejoin="round" stroke-miterlimit="4.6" stroke-width="2.1051"/>
<path transform="rotate(45)" d="m35.874-30.759h42.771a9.3736 9.3736 45 0 1 9.3736 9.3736v42.771a9.3736 9.3736 135 0 1-9.3736 9.3736h-42.771a9.3736 9.3736 45 0 1-9.3736-9.3736v-42.771a9.3736 9.3736 135 0 1 9.3736-9.3736z" fill="none" stroke="#6f2f20" stroke-linejoin="round" stroke-miterlimit="4.6"/>
<path transform="rotate(45)" d="m34.164-24.388h46.224a1.2761 1.2761 45 0 1 1.2761 1.2761v46.224a1.2761 1.2761 135 0 1-1.2761 1.2761h-46.224a1.2761 1.2761 45 0 1-1.2761-1.2761v-46.224a1.2761 1.2761 135 0 1 1.2761-1.2761z" fill="none" stroke="#6f2f20" stroke-linejoin="round" stroke-miterlimit="4.6" stroke-width="1.0208"/>
</svg>
