<?xml version="1.0" encoding="UTF-8"?>
<svg version="1.1" viewBox="0 0 81 81" xml:space="preserve" xmlns="http://www.w3.org/2000/svg" xmlns:xlink="http://www.w3.org/1999/xlink"><defs><linearGradient id="a" x1="80.397" x2="38.397" y1="23.121" y2="-18.879" gradientUnits="userSpaceOnUse"><stop stop-color="#ffb164" offset="0"/><stop stop-color="#fff5c2" offset="1"/></linearGradient><clipPath id="h"><path d="m28.489-28.77a9.5003 9.5003 0 0 0-2.7813 6.7173v43.35a9.5003 9.5003 0 0 0 9.5 9.5h43.35a9.5003 9.5003 0 0 0 9.5-9.5v-43.35a9.5003 9.5003 0 0 0-9.5-9.5l-43.35-1e-6a9.5003 9.5003 0 0 0-6.7187 2.7827zm3.8647 4.321a1.2933 1.2933 0 0 1 1.1198-0.64668h46.849a1.2933 1.2933 0 0 1 1.2934 1.2934v46.849a1.2933 1.2933 0 0 1-1.2934 1.2934h-46.849a1.2933 1.2933 0 0 1-1.2934-1.2934v-46.849a1.2933 1.2933 0 0 1 0.17357-0.64668z"/></clipPath><clipPath id="g"><path d="m29.245-28.014a9.3736 9.3736 0 0 0-2.7442 6.6277v42.772a9.3736 9.3736 0 0 0 9.3733 9.3733h42.772a9.3736 9.3736 0 0 0 9.3733-9.3733v-42.772a9.3736 9.3736 0 0 0-9.3733-9.3733h-42.772a9.3736 9.3736 0 0 0-6.6291 2.7456zm3.8131 4.2634a1.2761 1.2761 0 0 1 1.1049-0.63805h46.224a1.2761 1.2761 0 0 1 1.2761 1.2761v46.224a1.2761 1.2761 0 0 1-1.2761 1.2761h-46.224a1.2761 1.2761 0 0 1-1.2761-1.2761v-46.224a1.2761 1.2761 0 0 1 0.17125-0.63805z"/></clipPath><clipPath id="f"><path d="m29.245-28.014a9.3736 9.3736 0 0 0-2.7442 6.6277v42.772a9.3736 9.3736 0 0 0 9.3733 9.3733h42.772a9.3736 9.3736 0 0 0 9.3733-9.3733v-42.772a9.3736 9.3736 0 0 0-9.3733-9.3733h-42.772a9.3736 9.3736 0 0 0-6.6291 2.7456zm3.8131 4.2634a1.2761 1.2761 0 0 1 1.1049-0.63805h46.224a1.2761 1.2761 0 0 1 1.2761 1.2761v46.224a1.2761 1.2761 0 0 1-1.2761 1.2761h-46.224a1.2761 1.2761 0 0 1-1.2761-1.2761v-46.224a1.2761 1.2761 0 0 1 0.17125-0.63805z"/></clipPath><linearGradient id="b" x1="41.543" x2="76.543" y1="-15.732" y2="19.267" gradientUnits="userSpaceOnUse"><stop stop-color="#ebdb96" offset="0"/><stop stop-color="#eb9e57" offset="1"/></linearGradient><clipPath id="e"><path d="m33.009-24.32v48.479h48.479v-48.479zm9.8363 9.8363h28.806v28.806h-28.806z"/></clipPath><clipPath id="d"><path d="m32.88-24.395v48.79h48.79v-48.79zm9.8995 9.8995h28.991v28.991h-28.991z"/></clipPath><clipPath id="c"><path d="m32.88-24.395v48.79h48.79v-48.79zm9.8995 9.8995h28.991v28.991h-28.991z"/></clipPath></defs><rect transform="rotate(45)" x="42.426" y="-14.849" width="29.698" height="29.698" fill="#208dfd" fill-opacity=".50196"/><g opacity=".97"><rect transform="rotate(45)" x="32.527" y="-24.749" width="49.497" height="49.497" clip-path="url(#c)" fill="#fff" opacity="1"/><rect transform="rotate(45)" x="34.295" y="-22.981" width="49.497" height="49.497" clip-path="url(#d)" fill="url(#b)" opacity="1" style="mix-blend-mode:multiply"/><path transform="matrix(.71165 .71165 -.71165 .71165 -.29845 -.18326)" d="m42.494-14.835h31.617v29.421a2.196 2.196 135 0 1-2.196 2.196h-29.421z" clip-path="url(#e)" fill="#fff" opacity="1" stroke-linejoin="round" stroke-miterlimit="4.6" stroke-width=".9289" style="mix-blend-mode:luminosity"/></g><g><rect transform="rotate(45)" x="42.426" y="-14.849" width="29.699" height="29.699" fill="none" stroke="#6f2f20" stroke-linejoin="round" stroke-miterlimit="4.6" stroke-width=".99949"/><rect transform="rotate(45)" x="25.102" y="-32.173" width="63.64" height="63.64" clip-path="url(#f)" fill="#fff"/><path transform="rotate(45)" d="m36.315-27.577h46.164a6.6164 6.6164 45 0 1 6.6164 6.6164v46.164a6.6164 6.6164 135 0 1-6.6164 6.6164h-46.164a6.6164 6.6164 45 0 1-6.6164-6.6164v-46.164a6.6164 6.6164 135 0 1 6.6164-6.6164z" clip-path="url(#g)" fill="url(#a)" stroke-linejoin="round" stroke-miterlimit="4.6" stroke-width="2.953"/><path transform="matrix(.69768 .69768 -.69768 .69768 .54 1.0667)" d="m35.974-25.102h45.431a3.8009 3.8009 45 0 1 3.8009 3.8009v45.431a3.8009 3.8009 135 0 1-3.8009 3.8009h-45.431a3.8009 3.8009 45 0 1-3.8009-3.8009v-45.431a3.8009 3.8009 135 0 1 3.8009-3.8009z" clip-path="url(#h)" fill="#fff" stroke-linejoin="round" stroke-miterlimit="4.6" stroke-width="2.1051"/><path transform="rotate(45)" d="m35.874-30.759h42.771a9.3736 9.3736 45 0 1 9.3736 9.3736v42.771a9.3736 9.3736 135 0 1-9.3736 9.3736h-42.771a9.3736 9.3736 45 0 1-9.3736-9.3736v-42.771a9.3736 9.3736 135 0 1 9.3736-9.3736z" fill="none" stroke="#6f2f20" stroke-linejoin="round" stroke-miterlimit="4.6"/><path transform="rotate(45)" d="m34.164-24.388h46.224a1.2761 1.2761 45 0 1 1.2761 1.2761v46.224a1.2761 1.2761 135 0 1-1.2761 1.2761h-46.224a1.2761 1.2761 45 0 1-1.2761-1.2761v-46.224a1.2761 1.2761 135 0 1 1.2761-1.2761z" fill="none" stroke="#6f2f20" stroke-linejoin="round" stroke-miterlimit="4.6" stroke-width="1.0208"/></g></svg>
