<?xml version="1.0" encoding="UTF-8"?>
<svg version="1.1" viewBox="0 0 93 61" xml:space="preserve" xmlns="http://www.w3.org/2000/svg" xmlns:xlink="http://www.w3.org/1999/xlink"><defs><linearGradient id="a" x1="40.5" x2="40.5" y1="79" y2="5" gradientUnits="userSpaceOnUse"><stop stop-color="#ffb164" offset="0"/><stop stop-color="#fff5c2" offset="1"/></linearGradient><clipPath id="c"><path d="m30.5 0.5c-16.569 0-30 13.431-30 30s13.431 30 30 30h31.969c16.569 0 30-13.431 30-30s-13.431-30-30-30zm0 7h32c12.703 0 23 10.297 23 23s-10.297 23-23 23h-32c-12.703 0-23-10.297-23-23s10.297-23 23-23z"/></clipPath><clipPath id="b"><path d="m19.779 1.6475c-21.458 0-38.852 17.395-38.852 38.852 0 21.458 17.395 38.852 38.852 38.852h41.402c21.458 0 38.852-17.395 38.852-38.852 0-21.458-17.395-38.852-38.852-38.852zm0 9.0656h41.443c16.451 0 29.787 13.336 29.787 29.787s-13.336 29.787-29.787 29.787h-41.443c-16.451 0-29.787-13.336-29.787-29.787s13.336-29.787 29.787-29.787z"/></clipPath><clipPath id="e"><path d="m19.779 1.6475c-21.458 0-38.852 17.395-38.852 38.852 0 21.458 17.395 38.852 38.852 38.852h41.402c21.458 0 38.852-17.395 38.852-38.852 0-21.458-17.395-38.852-38.852-38.852zm0 9.0656h41.443c16.451 0 29.787 13.336 29.787 29.787s-13.336 29.787-29.787 29.787h-41.443c-16.451 0-29.787-13.336-29.787-29.787s13.336-29.787 29.787-29.787z"/></clipPath><clipPath id="d"><path d="m19.779 1.6475c-21.458 0-38.852 17.395-38.852 38.852 0 21.458 17.395 38.852 38.852 38.852h41.402c21.458 0 38.852-17.395 38.852-38.852 0-21.458-17.395-38.852-38.852-38.852zm0 9.0656h41.443c16.451 0 29.787 13.336 29.787 29.787s-13.336 29.787-29.787 29.787h-41.443c-16.451 0-29.787-13.336-29.787-29.787s13.336-29.787 29.787-29.787z"/></clipPath></defs><g transform="matrix(.77215 0 0 .77215 15.228 -.77215)"><path transform="matrix(1.2951 0 0 1.2951 -19.721 1)" d="m30.5 53.5c-12.703 0-23-10.297-23-23s10.297-23 23-23h32c12.703 0 23 10.297 23 23s-10.297 23-23 23z" fill="#e3007e" fill-opacity=".50196"/><rect x="-19.721" y="1" width="120.44" height="79" clip-path="url(#d)" fill="#fff"/><path d="m19.5 84c-20.435 0-37-17.909-37-40s16.565-37.82 37-37.82h42c20.435 0 37 15.728 37 37.82s-16.565 40-37 40" clip-path="url(#e)" fill="url(#a)" stroke-miterlimit="4.6" stroke-width="1.2596"/><path d="m22.385 76.715c-19.33 0-35-14.998-35-33.5s15.67-21.494 35-21.494h36.23c19.33 0 35 3.2771 35 21.779s-15.67 33.5-35 33.5z" clip-path="url(#b)" fill="#fff" stroke-miterlimit="4.6" stroke-width="1.2373"/><path transform="matrix(1.2951 0 0 1.2951 -19.721 1)" d="m29 2-8 8h51l-8-8z" clip-path="url(#c)" fill="#fff"/><path transform="matrix(1.2951 0 0 1.2951 -19.721 1)" d="m30.5 53.5c-12.703 0-23-10.297-23-23s10.297-23 23-23h32c12.703 0 23 10.297 23 23s-10.297 23-23 23z" fill="none" stroke="#6f2f20" stroke-linejoin="round" stroke-miterlimit="4.6" stroke-width="1.0035"/><path transform="matrix(1.2951 0 0 1.2951 -19.721 1)" d="m30.5 60.5c-16.569 0-30-13.431-30-30s13.431-30 30-30h31.968c16.569 0 30 13.431 30 30s-13.431 30-30 30z" fill="none" stroke="#6f2f20" stroke-linejoin="round" stroke-miterlimit="4.6"/></g></svg>
