<?xml version="1.0" encoding="UTF-8"?>
<svg version="1.1" viewBox="0 0 81 72" xml:space="preserve" xmlns="http://www.w3.org/2000/svg" xmlns:xlink="http://www.w3.org/1999/xlink"><defs><linearGradient id="a" x1="40.31" x2="40.31" y1="76.181" y2="-2.7227" gradientUnits="userSpaceOnUse"><stop stop-color="#ffb164" offset="0"/><stop stop-color="#fff5c2" offset="1"/></linearGradient><linearGradient id="c" x1="41.026" x2="41.026" y1="69.821" y2="-.45499" gradientUnits="userSpaceOnUse"><stop stop-color="#00e31c" stop-opacity=".25098" offset=".49899"/><stop stop-color="#57ef37" stop-opacity=".43922" offset=".49899"/></linearGradient><clipPath id="f"><path transform="matrix(1.0457 0 0 1.0457 -2.7566 -4.0189)" d="m18.232 5.5694-15.221 26.361a8.1385 8.1385 90 0 0 0 8.1389l15.221 26.361a8.1393 8.1393 29.999 0 0 7.0487 4.0694h30.438a8.1393 8.1393 150 0 0 7.0487-4.0694l15.221-26.361a8.1385 8.1385 90 0 0 0-8.1389l-15.221-26.361a8.1393 8.1393 29.999 0 0-7.0487-4.0694h-30.438a8.1393 8.1393 150 0 0-7.0487 4.0694zm5.2364 0.93056h34.063l17.033 29.5-17.033 29.5h-34.063l-17.033-29.5z"/></clipPath><clipPath id="e"><path transform="matrix(1.0049 0 0 1.0049 -.38794 -1.4567)" d="m18.232 5.5694-15.221 26.361a8.1385 8.1385 90 0 0 0 8.1389l15.221 26.361a8.1393 8.1393 29.999 0 0 7.0487 4.0694h30.438a8.1393 8.1393 150 0 0 7.0487-4.0694l15.221-26.361a8.1385 8.1385 90 0 0 0-8.1389l-15.221-26.361a8.1393 8.1393 29.999 0 0-7.0487-4.0694h-30.438a8.1393 8.1393 150 0 0-7.0487 4.0694zm5.2364 0.93056h34.063l17.033 29.5-17.033 29.5h-34.063l-17.033-29.5z"/></clipPath><clipPath id="d"><path transform="matrix(.54321 0 0 .54321 -4.3006 -17.509)" d="m18.232 5.5694-15.221 26.361a8.1385 8.1385 90 0 0 0 8.1389l15.221 26.361a8.1393 8.1393 29.999 0 0 7.0487 4.0694h30.438a8.1393 8.1393 150 0 0 7.0487-4.0694l15.221-26.361a8.1385 8.1385 90 0 0 0-8.1389l-15.221-26.361a8.1393 8.1393 29.999 0 0-7.0487-4.0694h-30.438a8.1393 8.1393 150 0 0-7.0487 4.0694zm5.2364 0.93056h34.063l17.033 29.5-17.033 29.5h-34.063l-17.033-29.5z"/></clipPath><clipPath id="j"><path d="m24.744 9.0856-16.777 29.057 16.777 29.057h33.551l16.777-29.057-16.777-29.057zm7.8637 13.621h17.824l8.9137 15.437-8.9137 15.437h-17.824l-8.9137-15.437z"/></clipPath><clipPath id="i"><path d="m22.025 4-18.477 32 18.477 32h36.949l18.477-32-18.477-32zm8.6602 15h19.629l9.8164 17-9.8164 17h-19.629l-9.8164-17z"/></clipPath><clipPath id="h"><path d="m22.807 4.3529-18.386 31.842 18.386 31.842h36.767l18.386-31.842-18.386-31.842zm8.6175 14.926h19.532l9.7681 16.916-9.7681 16.916h-19.532l-9.7681-16.916z"/></clipPath><linearGradient id="b" x1="40.72" x2="40.72" y1="78.885" y2="4.9018" gradientUnits="userSpaceOnUse"><stop stop-color="#f3a14d" offset="0"/><stop stop-color="#f2e18f" offset="1"/></linearGradient><clipPath id="g"><path d="m21.365 6.2742-19.356 33.524 19.356 33.524h38.709l19.356-33.524-19.356-33.524zm9.0726 15.714h20.564l10.284 17.81-10.284 17.81h-20.564l-10.284-17.81z"/></clipPath></defs><g><path transform="matrix(.55865 0 0 .55865 17.581 16.624)" d="m58.595 65.113-35.138-2e-6 -17.569-30.43 17.569-30.43 35.138 1.8e-6 17.569 30.43z" fill="url(#c)"/></g><g opacity=".96"><path transform="matrix(1.0049 0 0 1.0049 -.8949 -.37447)" d="m59.001 5.348 17.81 30.847-17.81 30.847-35.619 1e-6 -17.81-30.847 17.81-30.847z" clip-path="url(#h)" fill="#fff" opacity="1"/><path transform="matrix(.95454 0 0 .95454 1.6312 -1.989)" d="m57.807 10.465 19.905 34.476-18.658 28.381h-36.667l-18.658-28.381 19.905-34.476z" clip-path="url(#g)" fill="url(#b)" opacity="1" stroke-linejoin="round" stroke-miterlimit="4.6" stroke-width="1.0005" style="mix-blend-mode:multiply"/><rect x="30" y="17.5" width="21" height="5" clip-path="url(#i)" fill="#fff" style="mix-blend-mode:luminosity"/><path transform="matrix(1.1013 0 0 1.1013 -5.225 -6.0058)" d="m50.146 22.706 10.442 16.799-9.5344 15.437h-19.069l-9.5344-15.437 10.442-16.799z" clip-path="url(#j)" fill="#fff" stroke-linejoin="round" stroke-miterlimit="4.6" style="mix-blend-mode:luminosity"/></g><path transform="matrix(1.0207 0 0 1.0207 -1.0778 -1.7054)" d="m50.349 20.285 9.6155 16.655-9.6155 16.655-19.231 1e-6 -9.6155-16.655 9.6155-16.655z" fill="none" stroke="#6f2f20" stroke-linejoin="round" stroke-miterlimit="4.6" stroke-width=".9797"/><path transform="matrix(1.8409 0 0 1.8409 7.9169 32.233)" d="m28.676 21.059-21.954-1e-6 -10.977-19.012 10.977-19.012 21.954 1e-6 10.977 19.012z" clip-path="url(#d)" fill="#fff"/><path transform="matrix(.99513 0 0 .99513 .38606 1.4496)" d="m60.036 2.5628 19.726 34.166-19.726 34.166-39.452 2e-6 -19.726-34.166 19.726-34.166z" clip-path="url(#e)" fill="url(#a)"/><path transform="matrix(.95631 0 0 .95631 2.6362 3.8433)" d="m58.007 67.088-36.827-2e-6 -18.414-31.893 18.414-31.893 36.827 1.8e-6 18.414 31.893z" clip-path="url(#f)" fill="#fff"/><path transform="matrix(1.0227 0 0 1.0227 -.73374 -.079518)" d="m61.183 3.9453 16.705 28.934a4.8012 4.8012 90 0 1 0 4.8012l-16.705 28.934a4.8012 4.8012 150 0 1-4.1579 2.4006l-33.41 2e-6a4.8012 4.8012 30 0 1-4.1579-2.4006l-16.705-28.934a4.8012 4.8012 90 0 1-3e-7 -4.8012l16.705-28.934a4.8012 4.8012 150 0 1 4.1579-2.4006l33.41-1.7e-6a4.8012 4.8012 30 0 1 4.1579 2.4006z" fill="none" stroke="#6f2f20" stroke-linejoin="round" stroke-miterlimit="4.6" stroke-width=".97784"/><path transform="matrix(.87445 0 0 .87445 5.242 5.1492)" d="m59.797 1.5447 19.477 33.735-19.477 33.735-38.954 2e-6 -19.477-33.735 19.477-33.735z" fill="none" stroke="#6f2f20" stroke-linejoin="round" stroke-miterlimit="4.6" stroke-width="1.1436"/></svg>
