<?xml version="1.0" encoding="UTF-8"?>
<svg version="1.1" viewBox="0 0 93 61" xml:space="preserve" xmlns="http://www.w3.org/2000/svg" xmlns:xlink="http://www.w3.org/1999/xlink"><defs><linearGradient id="b" x1="40.5" x2="40.5" y1="79" y2="5" gradientUnits="userSpaceOnUse"><stop stop-color="#ffb164" offset="0"/><stop stop-color="#fff5c2" offset="1"/></linearGradient><clipPath id="d"><path d="m30.5 0.5c-16.569 0-30 13.431-30 30s13.431 30 30 30h31.969c16.569 0 30-13.431 30-30s-13.431-30-30-30zm0 7h32c12.703 0 23 10.297 23 23s-10.297 23-23 23h-32c-12.703 0-23-10.297-23-23s10.297-23 23-23z"/></clipPath><clipPath id="c"><path d="m19.779 1.6475c-21.458 0-38.852 17.395-38.852 38.852 0 21.458 17.395 38.852 38.852 38.852h41.402c21.458 0 38.852-17.395 38.852-38.852 0-21.458-17.395-38.852-38.852-38.852zm0 9.0656h41.443c16.451 0 29.787 13.336 29.787 29.787s-13.336 29.787-29.787 29.787h-41.443c-16.451 0-29.787-13.336-29.787-29.787s13.336-29.787 29.787-29.787z"/></clipPath><clipPath id="j"><path d="m19.779 1.6475c-21.458 0-38.852 17.395-38.852 38.852 0 21.458 17.395 38.852 38.852 38.852h41.402c21.458 0 38.852-17.395 38.852-38.852 0-21.458-17.395-38.852-38.852-38.852zm0 9.0656h41.443c16.451 0 29.787 13.336 29.787 29.787s-13.336 29.787-29.787 29.787h-41.443c-16.451 0-29.787-13.336-29.787-29.787s13.336-29.787 29.787-29.787z"/></clipPath><clipPath id="i"><path d="m19.779 1.6475c-21.458 0-38.852 17.395-38.852 38.852 0 21.458 17.395 38.852 38.852 38.852h41.402c21.458 0 38.852-17.395 38.852-38.852 0-21.458-17.395-38.852-38.852-38.852zm0 9.0656h41.443c16.451 0 29.787 13.336 29.787 29.787s-13.336 29.787-29.787 29.787h-41.443c-16.451 0-29.787-13.336-29.787-29.787s13.336-29.787 29.787-29.787z"/></clipPath><linearGradient id="a" x1="46.5" x2="46.5" y1="8.8099" y2="51.914" gradientUnits="userSpaceOnUse"><stop stop-color="#ffe59a" offset="0"/><stop stop-color="#ffa75b" offset="1"/></linearGradient><clipPath id="h"><path d="m30.516 7.5c-12.703 0-23 10.297-23 23s10.297 23 23 23h32c12.703 0 23-10.297 23-23s-10.297-23-23-23zm0.98438 10h30c7.1797 0 13 5.8203 13 13s-5.8203 13-13 13h-30c-7.1797 0-13-5.8203-13-13s5.8203-13 13-13z"/></clipPath><clipPath id="g"><path d="m30.516 7.5c-12.703 0-23 10.297-23 23s10.297 23 23 23h32c12.703 0 23-10.297 23-23s-10.297-23-23-23zm0.98438 10h30c7.1797 0 13 5.8203 13 13s-5.8203 13-13 13h-30c-7.1797 0-13-5.8203-13-13s5.8203-13 13-13z"/></clipPath><clipPath id="f"><path d="m30.516 7.5c-12.703 0-23 10.297-23 23s10.297 23 23 23h32c12.703 0 23-10.297 23-23s-10.297-23-23-23zm0.98438 10h30c7.1797 0 13 5.8203 13 13s-5.8203 13-13 13h-30c-7.1797 0-13-5.8203-13-13s5.8203-13 13-13z"/></clipPath><clipPath id="e"><path d="m30.516 7.5c-12.703 0-23 10.297-23 23s10.297 23 23 23h32c12.703 0 23-10.297 23-23s-10.297-23-23-23zm0.98438 10h30c7.1797 0 13 5.8203 13 13s-5.8203 13-13 13h-30c-7.1797 0-13-5.8203-13-13s5.8203-13 13-13z"/></clipPath></defs><g><path transform="translate(.016032)" d="m30.5 53.5c-12.703 0-23-10.297-23-23s10.297-23 23-23h32c12.703 0 23 10.297 23 23s-10.297 23-23 23z" fill="#e3007e" fill-opacity=".50196"/><rect x="6.5" y="5.5" width="80" height="50" clip-path="url(#e)" fill="#fff"/><path d="m30.279 9.3281c-12.458 0-22.559 10.099-22.559 22.557 0 4.7973 1.5035 9.2407 4.0566 12.896 4.1179 4.4187 9.9854 7.1855 16.502 7.1855h36.441c6.5165 0 12.384-2.7668 16.502-7.1855 2.5532-3.6558 4.0566-8.0992 4.0566-12.896 1e-6 -12.458-10.101-22.557-22.559-22.557z" clip-path="url(#f)" fill="url(#a)" stroke-linejoin="round" stroke-miterlimit="4.6" stroke-width="1.1179"/><path d="m31.868 42.364c-7.5425 0-13.657-6.1144-13.657-13.657-1e-6 -7.5425 6.1144-13.657 13.657-13.657h29.263c7.5425 0 13.657 6.1144 13.657 13.657s-6.1144 13.657-13.657 13.657" clip-path="url(#g)" fill="#fff" stroke-linejoin="round" stroke-miterlimit="4.6"/><path d="m30.462 45.876c-7.2015 1e-6 -13.039-5.838-13.039-13.039s5.838-13.039 13.039-13.039h32.075c7.2015 0 13.039 5.838 13.039 13.039s-5.838 13.039-13.039 13.039" clip-path="url(#h)" fill="#fff" stroke-linejoin="round" stroke-miterlimit="4.6"/><path d="m31.5 43.5c-7.1797 0-13-5.8203-13-13s5.8203-13 13-13h30c7.1797 0 13 5.8203 13 13s-5.8203 13-13 13z" fill="none" stroke="#6f2f20" stroke-linejoin="round" stroke-miterlimit="4.6" stroke-width=".98626"/></g><g transform="matrix(.77215 0 0 .77215 15.244 -.77215)"><rect x="-19.721" y="1" width="120.44" height="79" clip-path="url(#i)" fill="#fff"/><path d="m19.5 84c-20.435 0-37-17.909-37-40s16.565-37.82 37-37.82h42c20.435 0 37 15.728 37 37.82s-16.565 40-37 40" clip-path="url(#j)" fill="url(#b)" stroke-miterlimit="4.6" stroke-width="1.2596"/><path d="m22.385 76.715c-19.33 0-35-14.998-35-33.5s15.67-21.494 35-21.494h36.23c19.33 0 35 3.2771 35 21.779s-15.67 33.5-35 33.5z" clip-path="url(#c)" fill="#fff" stroke-miterlimit="4.6" stroke-width="1.2373"/><path transform="matrix(1.2951 0 0 1.2951 -19.721 1)" d="m29 2-8 8h51l-8-8z" clip-path="url(#d)" fill="#fff"/><path transform="matrix(1.2951 0 0 1.2951 -19.721 1)" d="m30.5 53.5c-12.703 0-23-10.297-23-23s10.297-23 23-23h32c12.703 0 23 10.297 23 23s-10.297 23-23 23z" fill="none" stroke="#6f2f20" stroke-linejoin="round" stroke-miterlimit="4.6" stroke-width="1.0035"/><path transform="matrix(1.2951 0 0 1.2951 -19.721 1)" d="m30.5 60.5c-16.569 0-30-13.431-30-30s13.431-30 30-30h31.968c16.569 0 30 13.431 30 30s-13.431 30-30 30z" fill="none" stroke="#6f2f20" stroke-linejoin="round" stroke-miterlimit="4.6"/></g></svg>
