<?xml version="1.0" encoding="UTF-8"?>
<svg version="1.1" viewBox="0 0 81 81" xml:space="preserve" xmlns="http://www.w3.org/2000/svg" xmlns:xlink="http://www.w3.org/1999/xlink"><defs><clipPath id="d"><path d="m40.5 1a39.5 39.5 0 0 0-39.5 39.5 39.5 39.5 0 0 0 39.5 39.5 39.5 39.5 0 0 0 39.5-39.5 39.5 39.5 0 0 0-39.5-39.5zm0 6.5a33 33 0 0 1 33 33 33 33 0 0 1-33 33 33 33 0 0 1-33-33 33 33 0 0 1 33-33z"/></clipPath><clipPath id="c"><path d="m40.5 1a39.5 39.5 0 0 0-39.5 39.5 39.5 39.5 0 0 0 39.5 39.5 39.5 39.5 0 0 0 39.5-39.5 39.5 39.5 0 0 0-39.5-39.5zm0 6.5a33 33 0 0 1 33 33 33 33 0 0 1-33 33 33 33 0 0 1-33-33 33 33 0 0 1 33-33z"/></clipPath><clipPath id="h"><path d="m40.5 1a39.5 39.5 0 0 0-39.5 39.5 39.5 39.5 0 0 0 39.5 39.5 39.5 39.5 0 0 0 39.5-39.5 39.5 39.5 0 0 0-39.5-39.5zm0 6.5a33 33 0 0 1 33 33 33 33 0 0 1-33 33 33 33 0 0 1-33-33 33 33 0 0 1 33-33z"/></clipPath><linearGradient id="b" x1="40.5" x2="40.5" y1="79" y2="5" gradientUnits="userSpaceOnUse"><stop stop-color="#ffb164" offset="0"/><stop stop-color="#fff5c2" offset="1"/></linearGradient><linearGradient id="a" x1="40.5" x2="40.5" y1="8.5" y2="72.5" gradientUnits="userSpaceOnUse"><stop stop-color="#fcd291" stop-opacity=".97255" offset="0"/><stop stop-color="#fc9552" stop-opacity=".97255" offset="1"/></linearGradient><clipPath id="g"><path d="M 40.5,7 A 33.5,33.5 0 0 0 7,40.5 33.5,33.5 0 0 0 40.5,74 33.5,33.5 0 0 0 74,40.5 33.5,33.5 0 0 0 40.5,7 Z m 0,13 A 20.5,20.5 0 0 1 61,40.5 20.5,20.5 0 0 1 40.5,61 20.5,20.5 0 0 1 20,40.5 20.5,20.5 0 0 1 40.5,20 Z"/></clipPath><clipPath id="f"><path d="M 40.5,7 A 33.5,33.5 0 0 0 7,40.5 33.5,33.5 0 0 0 40.5,74 33.5,33.5 0 0 0 74,40.5 33.5,33.5 0 0 0 40.5,7 Z m 0,13 A 20.5,20.5 0 0 1 61,40.5 20.5,20.5 0 0 1 40.5,61 20.5,20.5 0 0 1 20,40.5 20.5,20.5 0 0 1 40.5,20 Z"/></clipPath><clipPath id="e"><path d="M 40.5,7 A 33.5,33.5 0 0 0 7,40.5 33.5,33.5 0 0 0 40.5,74 33.5,33.5 0 0 0 74,40.5 33.5,33.5 0 0 0 40.5,7 Z m 0,13 A 20.5,20.5 0 0 1 61,40.5 20.5,20.5 0 0 1 40.5,61 20.5,20.5 0 0 1 20,40.5 20.5,20.5 0 0 1 40.5,20 Z"/></clipPath></defs><g><circle cx="40.5" cy="40.5" r="35" fill="#30661b"/><circle cx="40.052" cy="40.185" r="35" clip-path="url(#e)" fill="#fff"/><circle cx="40.5" cy="40.5" r="32" clip-path="url(#f)" fill="url(#a)"/><circle transform="matrix(.97778 0 0 .97778 .9 .9)" cx="40.5" cy="40.5" r="22.5" clip-path="url(#g)" fill="#fff"/><ellipse cx="40.5" cy="40.5" rx="20.5" ry="20.5" fill="none" stroke="#6f2f20" stroke-miterlimit="4.6"/><circle cx="40.5" cy="40.5" r="39.5" clip-path="url(#h)" fill="#fff"/><ellipse cx="40.5" cy="44" rx="37" ry="40" clip-path="url(#c)" fill="url(#b)"/><ellipse cx="40.5" cy="43.5" rx="35" ry="33.5" clip-path="url(#d)" fill="#fff"/><path d="m40.5 1.5a39.001 39.001 0 0 0-39 39 39.001 39.001 0 0 0 39 39 39.001 39.001 0 0 0 39-39 39.001 39.001 0 0 0-39-39zm0 5.9238a33.076 33.076 0 0 1 33.076 33.076 33.076 33.076 0 0 1-33.076 33.076 33.076 33.076 0 0 1-33.076-33.076 33.076 33.076 0 0 1 33.076-33.076z" fill="none" stroke="#6f2f20" stroke-miterlimit="4.6"/></g></svg>
