<?xml version="1.0" encoding="UTF-8" standalone="no"?>
<!-- Created with Inkscape (http://www.inkscape.org/) -->

<svg
   version="1.1"
   id="svg1"
   width="81"
   height="81"
   viewBox="0 0 81 81"
   sodipodi:docname="music_play_charge_mid_coincident.svg"
   inkscape:version="1.4 (e7c3feb100, 2024-10-09)"
   xml:space="preserve"
   xmlns:inkscape="http://www.inkscape.org/namespaces/inkscape"
   xmlns:sodipodi="http://sodipodi.sourceforge.net/DTD/sodipodi-0.dtd"
   xmlns:xlink="http://www.w3.org/1999/xlink"
   xmlns="http://www.w3.org/2000/svg"
   xmlns:svg="http://www.w3.org/2000/svg"><defs
     id="defs1"><linearGradient
       id="linearGradient14"
       inkscape:collect="always"><stop
         style="stop-color:#fcd291;stop-opacity:0.97254902;"
         offset="0"
         id="stop14" /><stop
         style="stop-color:#fc9552;stop-opacity:0.97254902;"
         offset="1"
         id="stop15" /></linearGradient><linearGradient
       id="linearGradient11"
       inkscape:collect="always"><stop
         style="stop-color:#ffb164;stop-opacity:1;"
         offset="0"
         id="stop11" /><stop
         style="stop-color:#fff5c2;stop-opacity:1;"
         offset="1"
         id="stop12" /></linearGradient><clipPath
       clipPathUnits="userSpaceOnUse"
       id="clipPath8"><path
         id="path8"
         style="display:inline;fill:#000000;fill-opacity:1;stroke:none;stroke-width:2.8688;stroke-miterlimit:4.6;stroke-dasharray:none;stroke-opacity:1"
         d="M 40.5,1 A 39.5,39.5 0 0 0 1,40.5 39.5,39.5 0 0 0 40.5,80 39.5,39.5 0 0 0 80,40.5 39.5,39.5 0 0 0 40.5,1 Z m 0,6.5 a 33,33 0 0 1 33,33 33,33 0 0 1 -33,33 33,33 0 0 1 -33,-33 33,33 0 0 1 33,-33 z"
         inkscape:label="annulus mask" /></clipPath><clipPath
       clipPathUnits="userSpaceOnUse"
       id="clipPath9"><path
         id="path9"
         style="display:inline;fill:#000000;fill-opacity:1;stroke:none;stroke-width:2.8688;stroke-miterlimit:4.6;stroke-dasharray:none;stroke-opacity:1"
         d="M 40.5,1 A 39.5,39.5 0 0 0 1,40.5 39.5,39.5 0 0 0 40.5,80 39.5,39.5 0 0 0 80,40.5 39.5,39.5 0 0 0 40.5,1 Z m 0,6.5 a 33,33 0 0 1 33,33 33,33 0 0 1 -33,33 33,33 0 0 1 -33,-33 33,33 0 0 1 33,-33 z"
         inkscape:label="annulus mask" /></clipPath><clipPath
       clipPathUnits="userSpaceOnUse"
       id="clipPath10"><path
         id="path10"
         style="display:inline;fill:#000000;fill-opacity:1;stroke:none;stroke-width:2.8688;stroke-miterlimit:4.6;stroke-dasharray:none;stroke-opacity:1"
         d="M 40.5,1 A 39.5,39.5 0 0 0 1,40.5 39.5,39.5 0 0 0 40.5,80 39.5,39.5 0 0 0 80,40.5 39.5,39.5 0 0 0 40.5,1 Z m 0,6.5 a 33,33 0 0 1 33,33 33,33 0 0 1 -33,33 33,33 0 0 1 -33,-33 33,33 0 0 1 33,-33 z"
         inkscape:label="annulus mask" /></clipPath><linearGradient
       inkscape:collect="always"
       xlink:href="#linearGradient11"
       id="linearGradient12"
       x1="40.5"
       y1="79"
       x2="40.5"
       y2="5"
       gradientUnits="userSpaceOnUse" /><linearGradient
       inkscape:collect="always"
       xlink:href="#linearGradient14"
       id="linearGradient15"
       x1="40.5"
       y1="8.5"
       x2="40.5"
       y2="72.5"
       gradientUnits="userSpaceOnUse" /><clipPath
       clipPathUnits="userSpaceOnUse"
       id="clipPath20"><path
         id="path20"
         style="display:inline;fill:#000000;fill-opacity:1;stroke:none;stroke-width:1.21363;stroke-miterlimit:4.6;stroke-dasharray:none;stroke-opacity:1"
         d="M 40.5,7 A 33.5,33.5 0 0 0 7,40.5 33.5,33.5 0 0 0 40.5,74 33.5,33.5 0 0 0 74,40.5 33.5,33.5 0 0 0 40.5,7 Z m 0,13 A 20.5,20.5 0 0 1 61,40.5 20.5,20.5 0 0 1 40.5,61 20.5,20.5 0 0 1 20,40.5 20.5,20.5 0 0 1 40.5,20 Z"
         inkscape:label="annulus mask" /></clipPath><clipPath
       clipPathUnits="userSpaceOnUse"
       id="clipPath21"><path
         id="path21"
         style="display:inline;fill:#000000;fill-opacity:1;stroke:none;stroke-width:1.21363;stroke-miterlimit:4.6;stroke-dasharray:none;stroke-opacity:1"
         d="M 40.5,7 A 33.5,33.5 0 0 0 7,40.5 33.5,33.5 0 0 0 40.5,74 33.5,33.5 0 0 0 74,40.5 33.5,33.5 0 0 0 40.5,7 Z m 0,13 A 20.5,20.5 0 0 1 61,40.5 20.5,20.5 0 0 1 40.5,61 20.5,20.5 0 0 1 20,40.5 20.5,20.5 0 0 1 40.5,20 Z"
         inkscape:label="annulus mask" /></clipPath><clipPath
       clipPathUnits="userSpaceOnUse"
       id="clipPath22"><path
         id="path22"
         style="display:inline;fill:#000000;fill-opacity:1;stroke:none;stroke-width:1.21363;stroke-miterlimit:4.6;stroke-dasharray:none;stroke-opacity:1"
         d="M 40.5,7 A 33.5,33.5 0 0 0 7,40.5 33.5,33.5 0 0 0 40.5,74 33.5,33.5 0 0 0 74,40.5 33.5,33.5 0 0 0 40.5,7 Z m 0,13 A 20.5,20.5 0 0 1 61,40.5 20.5,20.5 0 0 1 40.5,61 20.5,20.5 0 0 1 20,40.5 20.5,20.5 0 0 1 40.5,20 Z"
         inkscape:label="annulus mask" /></clipPath></defs><sodipodi:namedview
     id="namedview1"
     pagecolor="#ffffff"
     bordercolor="#111111"
     borderopacity="1"
     inkscape:showpageshadow="0"
     inkscape:pageopacity="0"
     inkscape:pagecheckerboard="1"
     inkscape:deskcolor="#d1d1d1"
     inkscape:zoom="5.9516024"
     inkscape:cx="35.872692"
     inkscape:cy="41.165384"
     inkscape:window-width="1920"
     inkscape:window-height="1011"
     inkscape:window-x="0"
     inkscape:window-y="370"
     inkscape:window-maximized="1"
     inkscape:current-layer="svg1" /><g
     inkscape:groupmode="layer"
     id="layer3"
     inkscape:label="Layer 2"
     style="display:inline"><circle
       style="display:inline;fill:#30661b;fill-opacity:1;stroke:none;stroke-width:1.60855;stroke-miterlimit:4.6;stroke-dasharray:none;stroke-opacity:1"
       id="path11"
       cx="40.5"
       cy="40.5"
       r="35"
       inkscape:label="fill" /></g><g
     inkscape:groupmode="layer"
     id="layer2"
     inkscape:label="Layer 1"
     style="display:inline"><circle
       style="display:inline;fill:#ffffff;fill-opacity:1;stroke:none;stroke-width:0.985928;stroke-miterlimit:4.6;stroke-dasharray:none;stroke-opacity:1"
       id="path14"
       cx="40.052368"
       cy="40.185326"
       r="35"
       inkscape:label="outer light"
       clip-path="url(#clipPath22)" /><circle
       style="display:inline;fill:url(#linearGradient15);stroke:none;stroke-width:1.02855;stroke-miterlimit:4.6;stroke-dasharray:none;stroke-opacity:1"
       id="path13"
       cx="40.5"
       cy="40.5"
       r="32"
       inkscape:label="shadow"
       clip-path="url(#clipPath21)" /><circle
       style="fill:#ffffff;fill-opacity:1;stroke:none;stroke-width:1.00134;stroke-miterlimit:4.6;stroke-dasharray:none;stroke-opacity:1"
       id="path15"
       cx="40.5"
       cy="40.5"
       r="22.5"
       inkscape:label="inner light"
       clip-path="url(#clipPath20)"
       transform="matrix(0.97777778,0,0,0.97777778,0.89999991,0.89999991)" /></g><g
     inkscape:groupmode="layer"
     id="layer1"
     inkscape:label="Layer"
     style="display:inline"><ellipse
       style="fill:none;fill-opacity:1;stroke:#6f2f20;stroke-width:1;stroke-miterlimit:4.6;stroke-dasharray:none;stroke-opacity:1"
       id="path23"
       cx="40.5"
       cy="40.5"
       inkscape:label="inner circle"
       rx="20.500134"
       ry="20.500135" /><circle
       style="display:inline;fill:#ffffff;fill-opacity:1;stroke:none;stroke-width:1.24239;stroke-miterlimit:4.6;stroke-dasharray:none;stroke-opacity:1"
       id="path3"
       cx="40.5"
       cy="40.5"
       r="39.5"
       inkscape:label="upper light"
       clip-path="url(#clipPath10)" /><ellipse
       style="display:inline;fill:url(#linearGradient12);stroke:none;stroke-width:1.25958;stroke-miterlimit:4.6;stroke-dasharray:none;stroke-opacity:1"
       id="path2"
       cx="40.5"
       cy="44"
       rx="37"
       ry="40"
       inkscape:label="shadow"
       clip-path="url(#clipPath9)" /><ellipse
       style="display:inline;fill:#ffffff;fill-opacity:1;stroke:none;stroke-width:1.23734;stroke-miterlimit:4.6;stroke-dasharray:none;stroke-opacity:1"
       id="path4"
       cx="40.5"
       cy="43.5"
       rx="35"
       ry="33.5"
       inkscape:label="lower light"
       clip-path="url(#clipPath8)" /><path
       id="path1"
       style="display:inline;fill:none;fill-opacity:1;stroke:#6f2f20;stroke-width:1;stroke-miterlimit:4.6;stroke-dasharray:none;stroke-opacity:1"
       d="m 40.5,1.5 a 39.000645,39.000641 0 0 0 -39,39 39.000645,39.000641 0 0 0 39,39 39.000645,39.000641 0 0 0 39,-39 39.000645,39.000641 0 0 0 -39,-39 z m 0,5.9238281 A 33.076492,33.076492 0 0 1 73.576172,40.5 33.076492,33.076492 0 0 1 40.5,73.576172 33.076492,33.076492 0 0 1 7.4238281,40.5 33.076492,33.076492 0 0 1 40.5,7.4238281 Z"
       inkscape:label="annulus" /></g></svg>
