<?xml version="1.0" encoding="UTF-8" standalone="no"?>
<!-- Created with Inkscape (http://www.inkscape.org/) -->

<svg
   version="1.1"
   id="svg1"
   width="93"
   height="61"
   viewBox="0 0 93 61"
   sodipodi:docname="music_play_circle_wide.svg"
   xml:space="preserve"
   inkscape:version="1.4 (e7c3feb100, 2024-10-09)"
   xmlns:inkscape="http://www.inkscape.org/namespaces/inkscape"
   xmlns:sodipodi="http://sodipodi.sourceforge.net/DTD/sodipodi-0.dtd"
   xmlns:xlink="http://www.w3.org/1999/xlink"
   xmlns="http://www.w3.org/2000/svg"
   xmlns:svg="http://www.w3.org/2000/svg"><defs
     id="defs1"><linearGradient
       id="linearGradient11"
       inkscape:collect="always"><stop
         style="stop-color:#ffb164;stop-opacity:1;"
         offset="0"
         id="stop11" /><stop
         style="stop-color:#fff5c2;stop-opacity:1;"
         offset="1"
         id="stop12" /></linearGradient><linearGradient
       inkscape:collect="always"
       xlink:href="#linearGradient11"
       id="linearGradient12"
       x1="40.5"
       y1="79"
       x2="40.5"
       y2="5"
       gradientUnits="userSpaceOnUse" /><clipPath
       clipPathUnits="userSpaceOnUse"
       id="clipPath8"><path
         id="path9"
         style="display:inline;fill:#000000;fill-opacity:1;stroke:none;stroke-width:1.00349;stroke-linejoin:round;stroke-miterlimit:4.6"
         inkscape:label="mask"
         d="m 30.499999,0.49999996 c -16.568542,0 -29.99999925,13.43145704 -29.99999925,29.99999904 0,16.568542 13.43145725,29.999999 29.99999925,29.999999 h 31.968749 c 16.568542,0 29.999999,-13.431457 29.999999,-29.999999 0,-16.568542 -13.431457,-29.99999904 -29.999999,-29.99999904 z m 0,6.99999984 h 31.999999 c 12.702549,0 22.999999,10.2974502 22.999999,22.9999992 0,12.702549 -10.29745,23 -22.999999,23 H 30.499999 c -12.702549,0 -22.9999994,-10.297451 -22.9999994,-23 0,-12.702549 10.2974504,-22.9999992 22.9999994,-22.9999992 z" /></clipPath><clipPath
       clipPathUnits="userSpaceOnUse"
       id="clipPath9"><path
         id="path10"
         style="display:inline;fill:#000000;fill-opacity:1;stroke:none;stroke-width:1.2996;stroke-linejoin:round;stroke-miterlimit:4.6"
         inkscape:label="mask"
         d="m 19.778689,1.647541 c -21.4576203,0 -38.852459,17.394838 -38.852459,38.852459 0,21.45762 17.3948387,38.852459 38.852459,38.852459 H 61.18084 c 21.45762,0 38.85246,-17.394839 38.85246,-38.852459 0,-21.457621 -17.39484,-38.852459 -38.85246,-38.852459 z m 0,9.065574 h 41.442623 c 16.450842,0 29.786885,13.336043 29.786885,29.786885 0,16.450842 -13.336043,29.786885 -29.786885,29.786885 H 19.778689 c -16.4508425,0 -29.786886,-13.336043 -29.786886,-29.786885 0,-16.450842 13.3360435,-29.786885 29.786886,-29.786885 z" /></clipPath><clipPath
       clipPathUnits="userSpaceOnUse"
       id="clipPath10"><path
         id="path12"
         style="display:inline;fill:#000000;fill-opacity:1;stroke:none;stroke-width:1.2996;stroke-linejoin:round;stroke-miterlimit:4.6"
         inkscape:label="mask"
         d="m 19.778689,1.647541 c -21.4576203,0 -38.852459,17.394838 -38.852459,38.852459 0,21.45762 17.3948387,38.852459 38.852459,38.852459 H 61.18084 c 21.45762,0 38.85246,-17.394839 38.85246,-38.852459 0,-21.457621 -17.39484,-38.852459 -38.85246,-38.852459 z m 0,9.065574 h 41.442623 c 16.450842,0 29.786885,13.336043 29.786885,29.786885 0,16.450842 -13.336043,29.786885 -29.786885,29.786885 H 19.778689 c -16.4508425,0 -29.786886,-13.336043 -29.786886,-29.786885 0,-16.450842 13.3360435,-29.786885 29.786886,-29.786885 z" /></clipPath><clipPath
       clipPathUnits="userSpaceOnUse"
       id="clipPath12"><path
         id="path13"
         style="display:inline;fill:#000000;fill-opacity:1;stroke:none;stroke-width:1.2996;stroke-linejoin:round;stroke-miterlimit:4.6"
         inkscape:label="mask"
         d="m 19.778689,1.647541 c -21.4576203,0 -38.852459,17.394838 -38.852459,38.852459 0,21.45762 17.3948387,38.852459 38.852459,38.852459 H 61.18084 c 21.45762,0 38.85246,-17.394839 38.85246,-38.852459 0,-21.457621 -17.39484,-38.852459 -38.85246,-38.852459 z m 0,9.065574 h 41.442623 c 16.450842,0 29.786885,13.336043 29.786885,29.786885 0,16.450842 -13.336043,29.786885 -29.786885,29.786885 H 19.778689 c -16.4508425,0 -29.786886,-13.336043 -29.786886,-29.786885 0,-16.450842 13.3360435,-29.786885 29.786886,-29.786885 z" /></clipPath></defs><sodipodi:namedview
     id="namedview1"
     pagecolor="#ffffff"
     bordercolor="#111111"
     borderopacity="1"
     inkscape:showpageshadow="0"
     inkscape:pageopacity="0"
     inkscape:pagecheckerboard="1"
     inkscape:deskcolor="#d1d1d1"
     inkscape:zoom="7.8193918"
     inkscape:cx="42.71432"
     inkscape:cy="32.483345"
     inkscape:window-width="1920"
     inkscape:window-height="1011"
     inkscape:window-x="0"
     inkscape:window-y="370"
     inkscape:window-maximized="1"
     inkscape:current-layer="svg1" /><g
     id="layer1"
     inkscape:label="Layer"
     style="display:inline"
     transform="matrix(0.7721519,0,0,0.7721519,15.227848,-0.77215195)"><path
       id="path14"
       style="display:inline;fill:#e3007e;stroke:none;stroke-width:1.00349;stroke-linejoin:round;stroke-miterlimit:4.6;fill-opacity:0.50196099"
       inkscape:label="fill"
       d="M 30.499999,53.5 C 17.79745,53.5 7.4999992,43.202549 7.4999992,30.5 c 0,-12.702549 10.2974508,-23 22.9999998,-23 h 31.999999 c 12.702549,0 23,10.297451 23,23 0,12.702549 -10.297451,23 -23,23 z"
       sodipodi:nodetypes="csccscc"
       transform="matrix(1.295082,0,0,1.295082,-19.721311,1.0000001)" /><rect
       style="display:inline;fill:#ffffff;fill-opacity:1;stroke:none;stroke-width:1.14189;stroke-linejoin:round;stroke-miterlimit:4.6;stroke-dasharray:none;stroke-opacity:1"
       id="rect8"
       width="120.44262"
       height="79"
       x="-19.72131"
       y="1"
       inkscape:label="upper light"
       clip-path="url(#clipPath12)" /><path
       id="path2"
       clip-path="url(#clipPath10)"
       style="display:inline;fill:url(#linearGradient12);stroke-width:1.25958;stroke-miterlimit:4.6"
       inkscape:label="shadow"
       d="m 19.5,84 c -20.43453561,0 -37,-17.90861 -37,-40 0,-22.09139 16.56546439,-37.8196721 37,-37.8196721 h 42 c 20.434536,0 37,15.7282821 37,37.8196721 0,22.09139 -16.565464,40 -37,40"
       sodipodi:nodetypes="csccsc" /><path
       id="path4"
       clip-path="url(#clipPath9)"
       style="display:inline;fill:#ffffff;fill-opacity:1;stroke-width:1.23734;stroke-miterlimit:4.6"
       inkscape:label="lower light"
       d="m 22.385246,76.71515 c -19.3299662,0 -35,-14.998461 -35,-33.5 0,-18.501539 15.6700338,-21.493838 35,-21.493838 h 36.229508 c 19.329966,0 35,3.277149 35,21.778688 0,18.501539 -15.670034,33.5 -35,33.5 z"
       sodipodi:nodetypes="csccscc" /><path
       style="fill:#ffffff;fill-opacity:1;stroke:none;stroke-width:1;stroke-linejoin:round;stroke-miterlimit:4.6;stroke-dasharray:none;stroke-opacity:1"
       d="m 29,2 -8,8 H 72 L 64,2 Z"
       id="path8"
       sodipodi:nodetypes="ccccc"
       transform="matrix(1.295082,0,0,1.295082,-19.721311,1.0000001)"
       inkscape:label="upper additional light"
       clip-path="url(#clipPath8)" /><path
       id="path6"
       style="fill:none;stroke:#6f2f20;stroke-width:1.00349;stroke-linejoin:round;stroke-miterlimit:4.6"
       inkscape:label="inner frame"
       transform="matrix(1.295082,0,0,1.295082,-19.721311,1.0000001)"
       d="M 30.499999,53.5 C 17.79745,53.5 7.4999992,43.202549 7.4999992,30.5 c 0,-12.702549 10.2974508,-23 22.9999998,-23 h 31.999999 c 12.702549,0 23,10.297451 23,23 0,12.702549 -10.297451,23 -23,23 z"
       sodipodi:nodetypes="csccscc" /><path
       id="path5"
       style="fill:none;stroke:#6f2f20;stroke-linejoin:round;stroke-miterlimit:4.6"
       inkscape:label="outer frame"
       transform="matrix(1.295082,0,0,1.295082,-19.721311,1.0000001)"
       d="m 30.499999,60.5 c -16.568542,0 -29.99999966,-13.431458 -29.99999966,-30 0,-16.568542 13.43145766,-30 29.99999966,-30 h 31.967934 c 16.568542,0 30,13.431458 30,30 0,16.568542 -13.431458,30 -30,30 z"
       sodipodi:nodetypes="csccscc" /></g></svg>
