<?xml version="1.0" encoding="UTF-8" standalone="no"?>
<!-- Created with Inkscape (http://www.inkscape.org/) -->

<svg
   version="1.1"
   id="svg1"
   width="90"
   height="62"
   viewBox="0 0 90 62"
   sodipodi:docname="music_play_wide_charge_begin_coincident.svg"
   xml:space="preserve"
   inkscape:version="1.4 (e7c3feb100, 2024-10-09)"
   xmlns:inkscape="http://www.inkscape.org/namespaces/inkscape"
   xmlns:sodipodi="http://sodipodi.sourceforge.net/DTD/sodipodi-0.dtd"
   xmlns:xlink="http://www.w3.org/1999/xlink"
   xmlns="http://www.w3.org/2000/svg"
   xmlns:svg="http://www.w3.org/2000/svg"><defs
     id="defs1"><linearGradient
       id="linearGradient13"
       inkscape:collect="always"><stop
         style="stop-color:#ffe49a;stop-opacity:1;"
         offset="0"
         id="stop14" /><stop
         style="stop-color:#ffa65b;stop-opacity:1;"
         offset="1"
         id="stop15" /></linearGradient><inkscape:path-effect
       effect="fillet_chamfer"
       id="path-effect13"
       is_visible="true"
       lpeversion="1"
       nodesatellites_param="F,0,1,1,0,1.7532612,0,1 @ F,0,0,1,0,1.7532612,0,1 @ F,0,0,1,0,3.7801687,0,1 @ F,0,0,1,0,3.7801687,0,1"
       radius="0"
       unit="px"
       method="auto"
       mode="F"
       chamfer_steps="1"
       flexible="false"
       use_knot_distance="true"
       apply_no_radius="true"
       apply_with_radius="true"
       only_selected="false"
       hide_knots="false" /><linearGradient
       id="linearGradient8"
       inkscape:collect="always"><stop
         style="stop-color:#ffe2a4;stop-opacity:1;"
         offset="0"
         id="stop8" /><stop
         style="stop-color:#ffcea3;stop-opacity:1;"
         offset="1"
         id="stop9" /></linearGradient><inkscape:path-effect
       effect="fillet_chamfer"
       id="path-effect2"
       is_visible="true"
       lpeversion="1"
       nodesatellites_param="F,0,0,1,0,5.0884252,0,1 @ F,0,0,1,0,0,0,1 @ F,0,0,1,0,0,0,1 @ F,0,0,1,0,0,0,1 @ F,0,0,1,0,0,0,1 @ F,0,1,1,0,5.0884252,0,1"
       radius="0"
       unit="px"
       method="auto"
       mode="F"
       chamfer_steps="1"
       flexible="false"
       use_knot_distance="true"
       apply_no_radius="true"
       apply_with_radius="true"
       only_selected="false"
       hide_knots="false" /><inkscape:path-effect
       effect="fillet_chamfer"
       id="path-effect1"
       is_visible="true"
       lpeversion="1"
       nodesatellites_param="F,0,1,1,0,1.7532612,0,1 @ F,0,0,1,0,1.7532612,0,1 @ F,0,0,1,0,3.7801687,0,1 @ F,0,0,1,0,3.7801687,0,1"
       radius="0"
       unit="px"
       method="auto"
       mode="F"
       chamfer_steps="1"
       flexible="false"
       use_knot_distance="true"
       apply_no_radius="true"
       apply_with_radius="true"
       only_selected="false"
       hide_knots="false" /><linearGradient
       id="linearGradient12"
       inkscape:collect="always"><stop
         style="stop-color:#eae5e5;stop-opacity:1;"
         offset="0"
         id="stop12" /><stop
         style="stop-color:#000000;stop-opacity:0;"
         offset="1"
         id="stop13" /></linearGradient><inkscape:path-effect
       effect="fillet_chamfer"
       id="path-effect12"
       is_visible="true"
       lpeversion="1"
       nodesatellites_param="F,0,0,1,0,2.7719543,0,1 @ F,0,1,1,0,2.7719543,0,1 @ F,0,1,1,0,2.7719543,0,1 @ F,0,1,1,0,2.7719543,0,1 @ F,0,1,1,0,2.7719543,0,1 @ F,0,1,1,0,2.7719543,0,1"
       radius="0"
       unit="px"
       method="auto"
       mode="F"
       chamfer_steps="1"
       flexible="false"
       use_knot_distance="true"
       apply_no_radius="true"
       apply_with_radius="true"
       only_selected="false"
       hide_knots="false" /><linearGradient
       id="linearGradient3"
       inkscape:collect="always"><stop
         style="stop-color:#00e31c;stop-opacity:0.25098041;"
         offset="0.5"
         id="stop3" /><stop
         style="stop-color:#57ef37;stop-opacity:0.43921569;"
         offset="0.5"
         id="stop6" /></linearGradient><inkscape:path-effect
       effect="fillet_chamfer"
       id="path-effect5"
       is_visible="true"
       lpeversion="1"
       nodesatellites_param="F,0,1,1,0,4.6990637,0,1 @ F,0,1,1,0,4.6990637,0,1 @ F,0,1,1,0,4.6990637,0,1 @ F,0,1,1,0,4.6990637,0,1 @ F,0,1,1,0,4.6990637,0,1 @ F,0,0,1,0,4.6990637,0,1 | F,0,0,1,0,0,0,1 @ F,0,0,1,0,0,0,1 @ F,0,0,1,0,0,0,1 @ F,0,0,1,0,0,0,1 @ F,0,0,1,0,0,0,1 @ F,0,0,1,0,0,0,1"
       radius="0"
       unit="px"
       method="auto"
       mode="F"
       chamfer_steps="1"
       flexible="false"
       use_knot_distance="true"
       apply_no_radius="true"
       apply_with_radius="true"
       only_selected="false"
       hide_knots="false" /><inkscape:path-effect
       effect="fillet_chamfer"
       id="path-effect4"
       is_visible="true"
       lpeversion="1"
       nodesatellites_param="F,0,0,1,0,2.7719543,0,1 @ F,0,1,1,0,2.7719543,0,1 @ F,0,1,1,0,2.7719543,0,1 @ F,0,1,1,0,2.7719543,0,1 @ F,0,1,1,0,2.7719543,0,1 @ F,0,1,1,0,2.7719543,0,1"
       radius="0"
       unit="px"
       method="auto"
       mode="F"
       chamfer_steps="1"
       flexible="false"
       use_knot_distance="true"
       apply_no_radius="true"
       apply_with_radius="true"
       only_selected="false"
       hide_knots="false" /><inkscape:path-effect
       effect="fillet_chamfer"
       id="path-effect3"
       is_visible="true"
       lpeversion="1"
       nodesatellites_param="F,0,0,1,0,0,0,1 @ F,0,0,1,0,0,0,1 @ F,0,0,1,0,0,0,1 @ F,0,0,1,0,0,0,1 @ F,0,0,1,0,0,0,1 @ F,0,0,1,0,0,0,1"
       radius="0"
       unit="px"
       method="auto"
       mode="F"
       chamfer_steps="1"
       flexible="false"
       use_knot_distance="true"
       apply_no_radius="true"
       apply_with_radius="true"
       only_selected="false"
       hide_knots="false" /><linearGradient
       id="linearGradient4"
       inkscape:collect="always"><stop
         style="stop-color:#ffb164;stop-opacity:1;"
         offset="0"
         id="stop4" /><stop
         style="stop-color:#fff5c2;stop-opacity:1;"
         offset="1"
         id="stop5" /></linearGradient><linearGradient
       inkscape:collect="always"
       xlink:href="#linearGradient4"
       id="linearGradient5"
       x1="40.117924"
       y1="65.877426"
       x2="40.117928"
       y2="6.4920716"
       gradientUnits="userSpaceOnUse" /><linearGradient
       inkscape:collect="always"
       xlink:href="#linearGradient3"
       id="linearGradient6"
       x1="40.319996"
       y1="-9.3192081"
       x2="40.319996"
       y2="79.879204"
       gradientUnits="userSpaceOnUse" /><radialGradient
       inkscape:collect="always"
       xlink:href="#linearGradient12"
       id="radialGradient1"
       cx="40.320476"
       cy="35.279999"
       fx="40.320476"
       fy="35.279999"
       r="43.814709"
       gradientTransform="matrix(1,0,0,0.78111099,0,7.7224039)"
       gradientUnits="userSpaceOnUse" /><clipPath
       clipPathUnits="userSpaceOnUse"
       id="clipPath2"><path
         id="path5"
         style="display:inline;fill:#000000;fill-opacity:1;stroke:none;stroke-width:0.998186"
         inkscape:label="mask"
         d="M 12.377268,8.4138492 A 4.7509781,4.1323861 0 0 0 8.1087547,10.731927 l -14.9786042,26.67525 a 6.0918549,5.2986766 0 0 0 -0.00612,4.64024 L 8.1148866,68.902396 a 4.7386188,4.121636 0 0 0 4.2623874,2.322162 h 53.011267 a 4.7447999,4.1270123 0 0 0 4.26443,-2.32012 L 84.639739,42.139324 a 6.0918336,5.2986581 0 0 0 0,-4.64024 L 69.652965,10.733969 A 4.7447999,4.1270123 0 0 0 65.388536,8.4138492 Z m 0.735247,6.3088468 h 51.540774 l 14.48844,25.096508 -14.48844,25.096507 H 13.112515 L -1.3759248,39.819204 Z" /></clipPath><clipPath
       clipPathUnits="userSpaceOnUse"
       id="clipPath5"><path
         id="path7"
         style="display:inline;fill:#000000;fill-opacity:1;stroke:none;stroke-width:0.959243"
         inkscape:label="mask"
         d="M 14.838494,4.5392417 A 4.5656343,3.9711595 0 0 0 10.736502,6.7668784 L -3.6577613,32.401384 a 5.8542012,5.0919466 0 0 0 -0.00588,4.459199 L 10.742395,62.667804 a 4.5537571,3.9608288 0 0 0 4.096104,2.231562 h 50.943206 a 4.5596971,3.9659953 0 0 0 4.098068,-2.229599 L 84.281881,36.948903 a 5.8541807,5.0919288 0 0 0 0,-4.459198 L 69.879767,6.7688412 A 4.5596971,3.9659953 0 0 0 65.7817,4.5392417 Z m 0.706563,6.0627053 h 49.53008 L 78.998358,34.719304 65.075137,58.836661 H 15.545057 L 1.6218361,34.719304 Z" /></clipPath><clipPath
       clipPathUnits="userSpaceOnUse"
       id="clipPath7"><path
         id="path8"
         style="display:inline;fill:#000000;fill-opacity:1;stroke:none;stroke-width:0.954575"
         inkscape:label="mask"
         d="M 19.652344,0.96679689 A 4.5434175,3.9518354 0 0 0 15.570313,3.1835937 L 1.2460937,28.693359 a 5.8257141,5.0671687 0 0 0 -0.00585,4.4375 L 15.576177,58.8125 a 4.5315981,3.941555 0 0 0 4.076172,2.220703 h 50.695312 a 4.5375092,3.9466964 0 0 0 4.078126,-2.21875 L 88.757813,33.21875 a 5.8256937,5.067151 0 0 0 0,-4.4375 L 74.425781,3.1855469 A 4.5375092,3.9466964 0 0 0 70.347656,0.96679689 Z M 20.355469,7 H 69.644531 L 83.5,31 69.644531,55 H 20.355469 L 6.5,31 Z" /></clipPath><linearGradient
       inkscape:collect="always"
       xlink:href="#linearGradient8"
       id="linearGradient9"
       x1="40.483955"
       y1="64.989471"
       x2="40.483955"
       y2="61.997284"
       gradientUnits="userSpaceOnUse" /><linearGradient
       inkscape:collect="always"
       xlink:href="#linearGradient13"
       id="linearGradient15"
       x1="43.703568"
       y1="8.9164553"
       x2="43.703568"
       y2="54.759415"
       gradientUnits="userSpaceOnUse" /><clipPath
       clipPathUnits="userSpaceOnUse"
       id="clipPath18"><path
         id="path18"
         style="display:inline;fill:#000000;fill-opacity:1;stroke:none;stroke-width:1;stroke-linejoin:round;stroke-miterlimit:4.6"
         inkscape:label="mask"
         d="M 20.355469,7 6.5,31 20.355469,55 H 69.644531 L 83.5,31 69.644531,7 Z m 6.830078,9.5 H 62.814453 L 71.185547,31 62.814453,45.5 H 27.185547 L 18.814453,31 Z" /></clipPath><clipPath
       clipPathUnits="userSpaceOnUse"
       id="clipPath19"><path
         id="path19"
         style="display:inline;fill:#000000;fill-opacity:1;stroke:none;stroke-width:1.83734;stroke-linejoin:round;stroke-miterlimit:4.6"
         inkscape:label="mask"
         d="M 3.1573377,-4.4566292 -22.299836,39.639643 3.1573377,83.735914 H 93.717985 L 119.17516,39.639643 93.717985,-4.4566292 Z M 15.706497,12.998145 H 81.168825 L 96.549351,39.639643 81.168825,66.28114 H 15.706497 L 0.32597107,39.639643 Z" /></clipPath><clipPath
       clipPathUnits="userSpaceOnUse"
       id="clipPath20"><path
         id="path20"
         style="display:inline;fill:#000000;fill-opacity:1;stroke:none;stroke-width:1;stroke-linejoin:round;stroke-miterlimit:4.6"
         inkscape:label="mask"
         d="M 20.355469,7 6.5,31 20.355469,55 H 69.644531 L 83.5,31 69.644531,7 Z m 6.830078,9.5 H 62.814453 L 71.185547,31 62.814453,45.5 H 27.185547 L 18.814453,31 Z" /></clipPath><clipPath
       clipPathUnits="userSpaceOnUse"
       id="clipPath21"><path
         id="path21"
         style="display:inline;fill:#000000;fill-opacity:1;stroke:none;stroke-width:1;stroke-linejoin:round;stroke-miterlimit:4.6"
         inkscape:label="mask"
         d="M 20.355469,7 6.5,31 20.355469,55 H 69.644531 L 83.5,31 69.644531,7 Z m 6.830078,9.5 H 62.814453 L 71.185547,31 62.814453,45.5 H 27.185547 L 18.814453,31 Z" /></clipPath><linearGradient
       inkscape:collect="always"
       xlink:href="#linearGradient8"
       id="linearGradient21"
       gradientUnits="userSpaceOnUse"
       x1="40.483955"
       y1="64.989471"
       x2="40.483955"
       y2="61.997284"
       gradientTransform="translate(4.5,-9.0000008)" /></defs><sodipodi:namedview
     id="namedview1"
     pagecolor="#ffffff"
     bordercolor="#111111"
     borderopacity="1"
     inkscape:showpageshadow="0"
     inkscape:pageopacity="0"
     inkscape:pagecheckerboard="1"
     inkscape:deskcolor="#d1d1d1"
     inkscape:zoom="7.1962212"
     inkscape:cx="42.105432"
     inkscape:cy="34.879417"
     inkscape:window-width="1920"
     inkscape:window-height="1011"
     inkscape:window-x="0"
     inkscape:window-y="370"
     inkscape:window-maximized="1"
     inkscape:current-layer="svg1" /><g
     inkscape:groupmode="layer"
     id="layer2"
     inkscape:label="Layer 1"
     style="display:inline"><path
       id="path3"
       style="display:inline;fill:url(#linearGradient6);stroke:#6f2f20;stroke-width:1.14357;stroke-linejoin:round;stroke-miterlimit:4.6"
       inkscape:label="fill"
       transform="matrix(0.8744548,0,0,0.8744548,9.7419863,0.1492357)"
       d="M 68.502131,7.8343263 84.347432,35.279999 68.502131,62.725671 H 12.137868 L -3.7074334,35.279999 12.137868,7.8343263 Z"
       sodipodi:nodetypes="ccccccc" /></g><g
     inkscape:groupmode="layer"
     id="layer3"
     inkscape:label="Layer 2"><rect
       style="fill:#ffffff;fill-opacity:1;stroke:none;stroke-width:0.950671;stroke-linejoin:round;stroke-miterlimit:4.6;stroke-dasharray:none;stroke-opacity:1"
       id="rect15"
       width="80"
       height="50"
       x="5"
       y="6"
       inkscape:label="coincidence outer light"
       clip-path="url(#clipPath21)" /><path
       style="display:inline;fill:url(#linearGradient15);stroke:none;stroke-width:1;stroke-linejoin:round;stroke-miterlimit:4.6;stroke-dasharray:none;stroke-opacity:1"
       d="M -7.945,60 21.5,9 h 47 l 29.445,51 z"
       id="path13"
       inkscape:label="coincidence shadow"
       sodipodi:nodetypes="ccccc"
       clip-path="url(#clipPath20)" /><path
       id="path11"
       clip-path="url(#clipPath19)"
       style="display:inline;fill:#ffffff;fill-opacity:1;stroke-linejoin:round;stroke-miterlimit:4.6"
       inkscape:label="coincidence inner lower light"
       transform="matrix(0.54426579,0,0,0.5442637,18.637038,9.4255815)"
       d="M 82.381253,69.098463 H 14.494068 A 3.0367174,3.0367174 30.000164 0 1 11.864185,67.580089 L -2.8770118,42.047249 a 2.1824959,2.1824959 120.00016 0 1 1.8901031,-3.273733 l 98.8491397,0 a 2.1824958,2.1824958 59.999837 0 1 1.890103,3.273733 l -14.741198,25.53284 a 3.0367175,3.0367175 149.99984 0 1 -2.629883,1.518374 z"
       sodipodi:nodetypes="ccccc"
       inkscape:path-effect="#path-effect13"
       inkscape:original-d="M 84.134514,69.098463 H 12.740807 L -4.7670774,38.773516 H 101.6424 Z" /><rect
       style="display:inline;fill:#ffffff;fill-opacity:1;stroke:none;stroke-width:0.679993;stroke-linejoin:round;stroke-miterlimit:4.6;stroke-dasharray:none;stroke-opacity:1"
       id="rect13"
       width="37"
       height="3"
       x="26.5"
       y="15"
       inkscape:label="coincidence inner upper light"
       clip-path="url(#clipPath18)" /><rect
       style="display:inline;fill:url(#linearGradient21);stroke:none;stroke-width:0.99843;stroke-linejoin:round;stroke-miterlimit:4.6"
       id="rect21"
       width="46"
       height="3"
       x="22"
       y="53"
       inkscape:label="coincidence lower tint" /><path
       id="path9"
       style="display:inline;fill:none;stroke:#6f2f20;stroke-linejoin:round;stroke-miterlimit:4.6"
       transform="matrix(0.99969346,0,0,0.99969346,-0.76486327,-1.2297222)"
       d="m 63.598525,17.735005 8.374235,14.504599 -8.374234,14.5046 H 27.959268 l -8.374235,-14.504598 8.374233,-14.5046 z"
       sodipodi:nodetypes="ccccccc"
       inkscape:label="coincidence frame" /></g><g
     id="layer1"
     inkscape:label="Layer"
     transform="translate(4.5000036,-5)"
     style="display:inline"><rect
       style="display:inline;fill:#ffffff;fill-opacity:1;stroke:none;stroke-width:0.999894;stroke-linejoin:round;stroke-miterlimit:4.6"
       id="rect1"
       width="90"
       height="62"
       x="0.12848155"
       y="-0.12848155"
       inkscape:label="upper light"
       transform="translate(-4.5000002,4.9999999)"
       clip-path="url(#clipPath7)" /><path
       id="path4"
       clip-path="url(#clipPath5)"
       style="display:inline;fill:url(#linearGradient5);stroke-linejoin:round;stroke-miterlimit:4.6"
       inkscape:label="shadow"
       transform="matrix(0.9951339,0,0,0.9951339,0.38605573,1.4496435)"
       d="M 68.981445,10.989094 85.530142,39.652308 V 65.870891 H -4.9099482 V 39.652308 L 11.638749,10.989094 a 8.8134065,8.8134065 149.99999 0 1 7.632636,-4.406707 l 42.077424,0 a 8.8134064,8.8134064 30.000013 0 1 7.632636,4.406707 z"
       sodipodi:nodetypes="ccccccc"
       inkscape:path-effect="#path-effect2"
       inkscape:original-d="M 66.437234,6.582387 85.530142,39.652308 V 65.870891 H -4.9099482 V 39.652308 L 14.18296,6.582387 Z" /><path
       id="path6"
       clip-path="url(#clipPath2)"
       style="display:inline;fill:#ffffff;fill-opacity:1;stroke-linejoin:round;stroke-miterlimit:4.6"
       inkscape:label="lower light"
       transform="matrix(0.95631202,0,0,0.95630836,3.3158132,-2.0794375)"
       d="M 63.271736,69.098463 H 14.494068 A 3.0367174,3.0367174 30.000164 0 1 11.864185,67.580089 L -2.8770118,42.047249 a 2.1824959,2.1824959 120.00016 0 1 1.8901031,-3.273733 H 78.752712 a 2.1824959,2.1824959 59.999835 0 1 1.890103,3.273733 l -14.741196,25.53284 a 3.0367173,3.0367173 149.99984 0 1 -2.629883,1.518374 z"
       sodipodi:nodetypes="ccccc"
       inkscape:path-effect="#path-effect1"
       inkscape:original-d="M 65.024997,69.098463 H 12.740807 L -4.7670774,38.773516 H 82.532881 Z" /><rect
       style="display:inline;fill:url(#linearGradient9);stroke:none;stroke-width:0.99843;stroke-linejoin:round;stroke-miterlimit:4.6"
       id="rect8"
       width="46"
       height="3"
       x="17.5"
       y="62"
       inkscape:label="lower tint" /><path
       id="path1"
       style="display:inline;fill:none;fill-opacity:0.25098;stroke:#6f2f20;stroke-width:0.97784;stroke-linejoin:round;stroke-miterlimit:4.6"
       inkscape:label="outer frame"
       transform="matrix(1.0235328,0,0,0.89026226,-0.76884219,4.5915485)"
       d="M 69.069695,4.0371183 83.071676,32.787876 a 5.6917509,5.6917509 90 0 1 0,4.984246 L 69.069695,66.522879 a 4.433184,4.433184 147.98333 0 1 -3.985649,2.492123 H 15.555604 A 4.4274088,4.4274088 32.050251 0 1 11.572877,66.521458 L -2.4345995,37.673555 a 5.6917708,5.6917708 90.067089 0 1 0.00584,-4.984245 L 11.56739,4.0356971 a 4.4389564,4.4389564 148.01684 0 1 3.988563,-2.4907014 h 49.528093 a 4.433184,4.433184 32.016668 0 1 3.985649,2.4921226 z"
       sodipodi:nodetypes="ccccccc"
       inkscape:path-effect="#path-effect4"
       inkscape:original-d="M 67.856,1.5449957 84.285371,35.279999 67.856,69.015002 H 12.78365 L -3.6453722,35.180011 12.783999,1.5449957 Z" /><path
       id="path2"
       style="display:inline;fill:none;fill-opacity:0.25098;stroke:#6f2f20;stroke-width:1.14357;stroke-linejoin:round;stroke-miterlimit:4.6"
       inkscape:label="inner frame"
       transform="matrix(0.8744548,0,0,0.8744548,5.2419827,5.1492357)"
       d="M 68.502131,7.8343263 84.347432,35.279999 68.502131,62.725671 H 12.137868 L -3.7074334,35.279999 12.137868,7.8343263 Z"
       sodipodi:nodetypes="ccccccc" /></g></svg>
