<?xml version="1.0" encoding="UTF-8" standalone="no"?>
<!-- Created with Inkscape (http://www.inkscape.org/) -->

<svg
   version="1.1"
   id="svg1"
   width="81"
   height="72"
   viewBox="0 0 81 72"
   sodipodi:docname="music_play_charge_end_coincident.svg"
   inkscape:version="1.4 (e7c3feb100, 2024-10-09)"
   xml:space="preserve"
   xmlns:inkscape="http://www.inkscape.org/namespaces/inkscape"
   xmlns:sodipodi="http://sodipodi.sourceforge.net/DTD/sodipodi-0.dtd"
   xmlns:xlink="http://www.w3.org/1999/xlink"
   xmlns="http://www.w3.org/2000/svg"
   xmlns:svg="http://www.w3.org/2000/svg"><defs
     id="defs1"><linearGradient
       id="linearGradient1"
       inkscape:collect="always"><stop
         style="stop-color:#f3a14d;stop-opacity:1;"
         offset="0"
         id="stop1" /><stop
         style="stop-color:#f2e18f;stop-opacity:1;"
         offset="1"
         id="stop2" /></linearGradient><inkscape:path-effect
       effect="fillet_chamfer"
       id="path-effect5"
       is_visible="true"
       lpeversion="1"
       nodesatellites_param="F,0,1,1,0,4.6990637,0,1 @ F,0,1,1,0,4.6990637,0,1 @ F,0,1,1,0,4.6990637,0,1 @ F,0,1,1,0,4.6990637,0,1 @ F,0,1,1,0,4.6990637,0,1 @ F,0,0,1,0,4.6990637,0,1 | F,0,0,1,0,0,0,1 @ F,0,0,1,0,0,0,1 @ F,0,0,1,0,0,0,1 @ F,0,0,1,0,0,0,1 @ F,0,0,1,0,0,0,1 @ F,0,0,1,0,0,0,1"
       radius="0"
       unit="px"
       method="auto"
       mode="F"
       chamfer_steps="1"
       flexible="false"
       use_knot_distance="true"
       apply_no_radius="true"
       apply_with_radius="true"
       only_selected="false"
       hide_knots="false" /><inkscape:path-effect
       effect="fillet_chamfer"
       id="path-effect4"
       is_visible="true"
       lpeversion="1"
       nodesatellites_param="F,0,0,1,0,2.7719543,0,1 @ F,0,1,1,0,2.7719543,0,1 @ F,0,1,1,0,2.7719543,0,1 @ F,0,1,1,0,2.7719543,0,1 @ F,0,1,1,0,2.7719543,0,1 @ F,0,1,1,0,2.7719543,0,1"
       radius="0"
       unit="px"
       method="auto"
       mode="F"
       chamfer_steps="1"
       flexible="false"
       use_knot_distance="true"
       apply_no_radius="true"
       apply_with_radius="true"
       only_selected="false"
       hide_knots="false" /><inkscape:path-effect
       effect="fillet_chamfer"
       id="path-effect3"
       is_visible="true"
       lpeversion="1"
       nodesatellites_param="F,0,0,1,0,0,0,1 @ F,0,0,1,0,0,0,1 @ F,0,0,1,0,0,0,1 @ F,0,0,1,0,0,0,1 @ F,0,0,1,0,0,0,1 @ F,0,0,1,0,0,0,1"
       radius="0"
       unit="px"
       method="auto"
       mode="F"
       chamfer_steps="1"
       flexible="false"
       use_knot_distance="true"
       apply_no_radius="true"
       apply_with_radius="true"
       only_selected="false"
       hide_knots="false" /><linearGradient
       id="linearGradient12"
       inkscape:collect="always"><stop
         style="stop-color:#00e31c;stop-opacity:0.25098041;"
         offset="0.49899355"
         id="stop12" /><stop
         style="stop-color:#57ef37;stop-opacity:0.43921569;"
         offset="0.49899355"
         id="stop13" /></linearGradient><linearGradient
       id="linearGradient4"
       inkscape:collect="always"><stop
         style="stop-color:#ffb164;stop-opacity:1;"
         offset="0"
         id="stop4" /><stop
         style="stop-color:#fff5c2;stop-opacity:1;"
         offset="1"
         id="stop5" /></linearGradient><linearGradient
       inkscape:collect="always"
       xlink:href="#linearGradient4"
       id="linearGradient5"
       x1="40.309914"
       y1="76.180878"
       x2="40.309914"
       y2="-2.7227073"
       gradientUnits="userSpaceOnUse" /><linearGradient
       inkscape:collect="always"
       xlink:href="#linearGradient12"
       id="linearGradient13"
       x1="41.026081"
       y1="69.820786"
       x2="41.026081"
       y2="-0.4549942"
       gradientUnits="userSpaceOnUse" /><clipPath
       clipPathUnits="userSpaceOnUse"
       id="clipPath5"><path
         id="path7"
         style="display:inline;fill:#000000;fill-opacity:1;stroke:none;stroke-width:1.16547;stroke-linecap:butt;stroke-linejoin:round;stroke-miterlimit:4.6;stroke-dasharray:none;stroke-opacity:1"
         d="M 18.232382,5.5694402 3.0117592,31.93056 a 8.1384699,8.1384699 90 0 0 0,8.13888 L 18.232382,66.430559 a 8.1392907,8.1392907 29.999166 0 0 7.048714,4.06944 h 30.437808 a 8.1392905,8.1392905 150.00083 0 0 7.048714,-4.06944 L 77.98824,40.06944 a 8.1384704,8.1384704 90 0 0 0,-8.13888 L 62.767618,5.5694402 A 8.1392904,8.1392904 29.999167 0 0 55.718904,1.5 H 25.281096 A 8.1392906,8.1392906 150.00083 0 0 18.232382,5.5694402 Z M 23.468749,6.5 H 57.53125 L 74.564454,36 57.53125,65.5 H 23.468749 L 6.4355466,36 Z"
         inkscape:label="mask"
         sodipodi:nodetypes="cccccccccccccc"
         inkscape:path-effect="#path-effect5"
         inkscape:original-d="M 20.582032,1.5 0.66210886,36 20.582032,70.499999 H 60.417968 L 80.33789,36 60.417968,1.5 Z m 2.886717,5 H 57.53125 L 74.564454,36 57.53125,65.5 H 23.468749 L 6.4355466,36 Z"
         transform="matrix(1.0456838,0,0,1.0456878,-2.7565892,-4.0188503)" /></clipPath><clipPath
       clipPathUnits="userSpaceOnUse"
       id="clipPath7"><path
         id="path8"
         style="display:inline;fill:#000000;fill-opacity:1;stroke:none;stroke-width:1.16547;stroke-linecap:butt;stroke-linejoin:round;stroke-miterlimit:4.6;stroke-dasharray:none;stroke-opacity:1"
         d="M 18.232382,5.5694402 3.0117592,31.93056 a 8.1384699,8.1384699 90 0 0 0,8.13888 L 18.232382,66.430559 a 8.1392907,8.1392907 29.999166 0 0 7.048714,4.06944 h 30.437808 a 8.1392905,8.1392905 150.00083 0 0 7.048714,-4.06944 L 77.98824,40.06944 a 8.1384704,8.1384704 90 0 0 0,-8.13888 L 62.767618,5.5694402 A 8.1392904,8.1392904 29.999167 0 0 55.718904,1.5 H 25.281096 A 8.1392906,8.1392906 150.00083 0 0 18.232382,5.5694402 Z M 23.468749,6.5 H 57.53125 L 74.564454,36 57.53125,65.5 H 23.468749 L 6.4355466,36 Z"
         inkscape:label="mask"
         sodipodi:nodetypes="cccccccccccccc"
         inkscape:path-effect="#path-effect5"
         inkscape:original-d="M 20.582032,1.5 0.66210886,36 20.582032,70.499999 H 60.417968 L 80.33789,36 60.417968,1.5 Z m 2.886717,5 H 57.53125 L 74.564454,36 57.53125,65.5 H 23.468749 L 6.4355466,36 Z"
         transform="matrix(1.0048899,0,0,1.0048899,-0.3879435,-1.4567321)" /></clipPath><clipPath
       clipPathUnits="userSpaceOnUse"
       id="clipPath8"><path
         id="path10"
         style="display:inline;fill:#000000;fill-opacity:1;stroke:none;stroke-width:1.16547;stroke-linecap:butt;stroke-linejoin:round;stroke-miterlimit:4.6;stroke-dasharray:none;stroke-opacity:1"
         d="M 18.232382,5.5694402 3.0117592,31.93056 a 8.1384699,8.1384699 90 0 0 0,8.13888 L 18.232382,66.430559 a 8.1392907,8.1392907 29.999166 0 0 7.048714,4.06944 h 30.437808 a 8.1392905,8.1392905 150.00083 0 0 7.048714,-4.06944 L 77.98824,40.06944 a 8.1384704,8.1384704 90 0 0 0,-8.13888 L 62.767618,5.5694402 A 8.1392904,8.1392904 29.999167 0 0 55.718904,1.5 H 25.281096 A 8.1392906,8.1392906 150.00083 0 0 18.232382,5.5694402 Z M 23.468749,6.5 H 57.53125 L 74.564454,36 57.53125,65.5 H 23.468749 L 6.4355466,36 Z"
         inkscape:label="mask"
         sodipodi:nodetypes="cccccccccccccc"
         inkscape:path-effect="#path-effect5"
         inkscape:original-d="M 20.582032,1.5 0.66210886,36 20.582032,70.499999 H 60.417968 L 80.33789,36 60.417968,1.5 Z m 2.886717,5 H 57.53125 L 74.564454,36 57.53125,65.5 H 23.468749 L 6.4355466,36 Z"
         transform="matrix(0.54321215,0,0,0.54321215,-4.3005604,-17.509449)" /></clipPath><clipPath
       clipPathUnits="userSpaceOnUse"
       id="clipPath15"><path
         id="path15"
         style="display:inline;fill:#000000;fill-opacity:1;stroke:none;stroke-width:0.901416;stroke-linejoin:round;stroke-miterlimit:4.6;stroke-dasharray:none;stroke-opacity:1"
         d="M 24.74438,9.0856355 7.966982,38.142812 24.74438,67.199988 H 58.295628 L 75.073027,38.142812 58.295628,9.0856355 Z m 7.863739,13.6205515 h 17.823769 l 8.913658,15.436625 -8.913658,15.436625 H 32.608119 L 23.694463,38.142812 Z"
         inkscape:label="mask" /></clipPath><clipPath
       clipPathUnits="userSpaceOnUse"
       id="clipPath16"><path
         id="path16"
         style="display:inline;fill:#000000;fill-opacity:1;stroke:none;stroke-width:0.992709;stroke-linejoin:round;stroke-miterlimit:4.6;stroke-dasharray:none;stroke-opacity:1"
         d="M 22.025391,4 3.5488282,36 22.025391,68 H 58.974609 L 77.451172,36 58.974609,4 Z m 8.660155,15 h 19.628907 l 9.816406,17 -9.816406,17 H 30.685546 L 20.869141,36 Z"
         inkscape:label="mask" /></clipPath><clipPath
       clipPathUnits="userSpaceOnUse"
       id="clipPath18"><path
         id="path18"
         style="display:inline;fill:#000000;fill-opacity:1;stroke:none;stroke-width:0.987822;stroke-linejoin:round;stroke-miterlimit:4.6;stroke-dasharray:none;stroke-opacity:1"
         d="M 22.807459,4.3529313 4.4218533,36.1954 22.807459,68.037869 H 59.574782 L 77.960387,36.1954 59.574782,4.3529313 Z M 31.424981,19.279089 H 50.957258 L 60.725339,36.1954 50.957258,53.111712 H 31.424981 L 21.656901,36.1954 Z"
         inkscape:label="mask" /></clipPath><linearGradient
       inkscape:collect="always"
       xlink:href="#linearGradient1"
       id="linearGradient2"
       x1="40.71983"
       y1="78.884903"
       x2="40.71983"
       y2="4.9018121"
       gradientUnits="userSpaceOnUse" /><clipPath
       clipPathUnits="userSpaceOnUse"
       id="clipPath2"><path
         id="path9"
         style="display:inline;fill:#000000;fill-opacity:1;stroke:none;stroke-width:1.03998;stroke-linejoin:round;stroke-miterlimit:4.6;stroke-dasharray:none;stroke-opacity:1"
         d="M 21.365416,6.2741957 2.0089559,39.798111 21.365416,73.322027 H 60.074243 L 79.430703,39.798111 60.074243,6.2741957 Z M 30.437988,21.988531 H 51.00167 L 61.285556,39.798111 51.00167,57.607691 H 30.437988 L 20.154103,39.798111 Z"
         inkscape:label="mask" /></clipPath></defs><sodipodi:namedview
     id="namedview1"
     pagecolor="#ffffff"
     bordercolor="#111111"
     borderopacity="1"
     inkscape:showpageshadow="0"
     inkscape:pageopacity="0"
     inkscape:pagecheckerboard="1"
     inkscape:deskcolor="#d1d1d1"
     inkscape:zoom="4.5016549"
     inkscape:cx="58.422959"
     inkscape:cy="22.214053"
     inkscape:window-width="1290"
     inkscape:window-height="1011"
     inkscape:window-x="100"
     inkscape:window-y="0"
     inkscape:window-maximized="0"
     inkscape:current-layer="layer2" /><g
     inkscape:groupmode="layer"
     id="layer2"
     inkscape:label="Layer 1"
     style="display:inline"><path
       sodipodi:type="star"
       style="display:inline;fill:url(#linearGradient13);stroke:none;stroke-width:1;stroke-linecap:butt;stroke-linejoin:round;stroke-miterlimit:4.6;stroke-dasharray:none;stroke-opacity:1"
       id="path12"
       inkscape:flatsided="true"
       sodipodi:sides="6"
       sodipodi:cx="41.026081"
       sodipodi:cy="34.682896"
       sodipodi:r1="35.13789"
       sodipodi:r2="30.430305"
       sodipodi:arg1="1.0471976"
       sodipodi:arg2="1.5707963"
       inkscape:rounded="-3.469447e-18"
       inkscape:randomized="0"
       d="M 58.595025,65.113202 23.457135,65.1132 5.8881912,34.682894 23.457138,4.2525895 l 35.13789,1.8e-6 17.568943,30.4303057 z"
       inkscape:label="fill"
       transform="matrix(0.5586536,0,0,0.5586536,17.580632,16.624275)" /></g><g
     inkscape:groupmode="layer"
     id="layer3"
     inkscape:label="Layer 2"
     style="opacity:0.96"><path
       sodipodi:type="star"
       style="display:inline;opacity:1;fill:#ffffff;fill-opacity:1;stroke:none;stroke-width:1;stroke-linejoin:round;stroke-miterlimit:4.6;stroke-dasharray:none;stroke-opacity:1"
       id="path13"
       inkscape:flatsided="true"
       sodipodi:sides="6"
       sodipodi:cx="41.19112"
       sodipodi:cy="36.1954"
       sodipodi:r1="35.619499"
       sodipodi:r2="30.847391"
       sodipodi:arg1="-1.0471976"
       sodipodi:arg2="-0.52359878"
       inkscape:rounded="-3.469447e-18"
       inkscape:randomized="0"
       d="M 59.000868,5.3480082 76.810619,36.195398 59.000871,67.042791 23.381372,67.042792 5.5716209,36.195402 23.381369,5.3480099 Z"
       transform="matrix(1.0049472,0,0,1.0049472,-0.89490086,-0.37446612)"
       inkscape:label="outerlight"
       clip-path="url(#clipPath18)" /><path
       id="path14"
       style="display:inline;opacity:1;mix-blend-mode:multiply;fill:url(#linearGradient2);stroke-width:1.00048;stroke-linejoin:round;stroke-miterlimit:4.6;stroke-dasharray:none"
       transform="matrix(0.95454244,0,0,0.95454244,1.6311945,-1.9889861)"
       d="M 57.8067,10.464685 77.711375,44.940889 59.053221,73.322027 H 22.386438 L 3.7282842,44.940889 23.632956,10.464687 Z"
       sodipodi:nodetypes="ccccccc"
       inkscape:label="shadow"
       clip-path="url(#clipPath2)" /><rect
       style="display:inline;mix-blend-mode:luminosity;fill:#ffffff;fill-opacity:1;stroke:none;stroke-width:0.822563;stroke-linejoin:round;stroke-miterlimit:4.6;stroke-dasharray:none;stroke-opacity:1"
       id="rect11"
       width="21"
       height="5"
       x="30"
       y="17.5"
       inkscape:label="inner upper light"
       clip-path="url(#clipPath16)" /><path
       id="path11"
       style="display:inline;mix-blend-mode:luminosity;fill:#ffffff;fill-opacity:1;stroke-linejoin:round;stroke-miterlimit:4.6"
       transform="matrix(1.101277,0,0,1.101277,-5.2250258,-6.0058014)"
       d="M 50.146354,22.706187 60.588776,39.504867 51.05439,54.941492 H 31.985618 L 22.451232,39.504867 32.893655,22.706187 Z"
       sodipodi:nodetypes="ccccccc"
       inkscape:label="inner lower light"
       clip-path="url(#clipPath15)" /></g><g
     inkscape:groupmode="layer"
     id="layer1"
     inkscape:label="Layer"><path
       sodipodi:type="star"
       style="fill:none;fill-opacity:0.50196099;stroke:#6f2f20;stroke-width:0.979699;stroke-linejoin:round;stroke-miterlimit:4.6;stroke-dasharray:none;stroke-opacity:1"
       id="path3"
       inkscape:flatsided="true"
       sodipodi:sides="6"
       sodipodi:cx="40.733082"
       sodipodi:cy="36.939312"
       sodipodi:r1="19.231064"
       sodipodi:r2="16.654591"
       sodipodi:arg1="-1.0471976"
       sodipodi:arg2="-0.52359878"
       inkscape:rounded="-3.469447e-18"
       inkscape:randomized="0"
       d="m 50.348613,20.284722 9.615533,16.654589 -9.615531,16.65459 -19.231064,10e-7 -9.615533,-16.654589 9.615531,-16.65459 z"
       transform="matrix(1.0207391,0,0,1.0207391,-1.0778493,-1.7054001)"
       inkscape:label="coincidence inner frame" /><path
       sodipodi:type="star"
       style="display:inline;fill:#ffffff;fill-opacity:1;stroke:none;stroke-width:1;stroke-linecap:butt;stroke-linejoin:round;stroke-miterlimit:4.6;stroke-dasharray:none;stroke-opacity:1"
       id="path5"
       inkscape:flatsided="true"
       sodipodi:sides="6"
       sodipodi:cx="17.699532"
       sodipodi:cy="2.0461886"
       sodipodi:r1="21.953657"
       sodipodi:r2="19.012424"
       sodipodi:arg1="1.0471976"
       sodipodi:arg2="1.5707963"
       inkscape:rounded="-3.469447e-18"
       inkscape:randomized="0"
       d="M 28.676359,21.058614 6.7227021,21.058613 -4.2541256,2.0461875 6.7227039,-16.966237 l 21.9536571,1e-6 10.976828,19.0124257 z"
       transform="matrix(1.8409014,0,0,1.8409014,7.9169076,32.233169)"
       inkscape:label="upper light"
       clip-path="url(#clipPath8)" /><path
       sodipodi:type="star"
       style="display:inline;fill:url(#linearGradient5);fill-opacity:1;stroke:none;stroke-width:1;stroke-linecap:butt;stroke-linejoin:round;stroke-miterlimit:4.6;stroke-dasharray:none;stroke-opacity:1"
       id="path4"
       inkscape:flatsided="true"
       sodipodi:sides="6"
       sodipodi:cx="40.309914"
       sodipodi:cy="36.729084"
       sodipodi:r1="39.451794"
       sodipodi:r2="34.166256"
       sodipodi:arg1="-1.0471976"
       sodipodi:arg2="-0.52359878"
       inkscape:rounded="-3.469447e-18"
       inkscape:randomized="0"
       d="M 60.035809,2.5628275 79.761707,36.729082 60.035812,70.895339 20.584018,70.895341 0.85811996,36.729086 20.584015,2.5628294 Z"
       transform="matrix(0.9951339,0,0,0.9951339,0.38605573,1.4496435)"
       inkscape:label="shadow"
       clip-path="url(#clipPath7)" /><path
       sodipodi:type="star"
       style="display:inline;fill:#ffffff;fill-opacity:1;stroke:none;stroke-width:1;stroke-linecap:butt;stroke-linejoin:round;stroke-miterlimit:4.6;stroke-dasharray:none;stroke-opacity:1"
       id="path6"
       inkscape:flatsided="true"
       sodipodi:sides="6"
       sodipodi:cx="39.593746"
       sodipodi:cy="35.194443"
       sodipodi:r1="36.827415"
       sodipodi:r2="31.893476"
       sodipodi:arg1="1.0471976"
       sodipodi:arg2="1.5707963"
       inkscape:rounded="-3.469447e-18"
       inkscape:randomized="0"
       d="m 58.007452,67.087921 -36.827415,-2e-6 L 2.7663307,35.194441 21.18004,3.3009645 l 36.827415,1.8e-6 18.413707,31.8934787 z"
       transform="matrix(0.95631202,0,0,0.95630836,2.6361594,3.8432601)"
       inkscape:label="lower light"
       clip-path="url(#clipPath5)" /><path
       id="path1"
       style="display:inline;fill:none;fill-opacity:0.25098;stroke:#6f2f20;stroke-width:0.97784;stroke-linejoin:round;stroke-miterlimit:4.6"
       inkscape:label="outer frame"
       transform="matrix(1.0226621,0,0,1.0226621,-0.73373556,-0.07951764)"
       d="M 61.183075,3.9452532 77.888223,32.879414 a 4.8011658,4.8011658 89.999997 0 1 0,4.801166 L 61.183079,66.614742 a 4.8011656,4.8011656 150 0 1 -4.157931,2.400583 l -33.410293,2e-6 A 4.8011657,4.8011657 29.999997 0 1 19.456924,66.614744 L 2.7517763,37.680584 a 4.8011656,4.8011656 89.999997 0 1 -3e-7,-4.801166 L 19.456921,3.9452552 a 4.8011657,4.8011657 150 0 1 4.157931,-2.400583 l 33.410292,-1.7e-6 a 4.8011657,4.8011657 29.999997 0 1 4.157931,2.4005827 z"
       sodipodi:nodetypes="ccccccc"
       inkscape:path-effect="#path-effect4"
       inkscape:original-d="M 59.797098,1.5446704 79.2742,35.279997 59.797102,69.015325 20.842901,69.015327 1.365799,35.280001 20.842898,1.5446723 Z" /><path
       sodipodi:type="star"
       style="display:inline;fill:none;fill-opacity:0.25098;stroke:#6f2f20;stroke-width:1.14357;stroke-linecap:butt;stroke-linejoin:round;stroke-miterlimit:4.6;stroke-dasharray:none;stroke-opacity:1"
       id="path2"
       inkscape:flatsided="true"
       sodipodi:sides="6"
       sodipodi:cx="40.32"
       sodipodi:cy="35.279999"
       sodipodi:r1="38.954201"
       sodipodi:r2="33.735329"
       sodipodi:arg1="-1.0471976"
       sodipodi:arg2="-0.52359878"
       inkscape:rounded="-3.469447e-18"
       inkscape:randomized="0"
       d="M 59.797098,1.5446704 79.2742,35.279997 59.797102,69.015325 20.842901,69.015327 1.365799,35.280001 20.842898,1.5446723 Z"
       inkscape:label="inner frame"
       transform="matrix(0.8744548,0,0,0.8744548,5.2419827,5.1492357)" /></g></svg>
