<?xml version="1.0" encoding="UTF-8" standalone="no"?>
<!-- Created with Inkscape (http://www.inkscape.org/) -->

<svg
   version="1.1"
   id="svg1"
   width="81"
   height="72"
   viewBox="0 0 81 72"
   sodipodi:docname="music_play_charge_begin.svg"
   inkscape:version="1.4 (e7c3feb100, 2024-10-09)"
   xml:space="preserve"
   xmlns:inkscape="http://www.inkscape.org/namespaces/inkscape"
   xmlns:sodipodi="http://sodipodi.sourceforge.net/DTD/sodipodi-0.dtd"
   xmlns:xlink="http://www.w3.org/1999/xlink"
   xmlns="http://www.w3.org/2000/svg"
   xmlns:svg="http://www.w3.org/2000/svg"><defs
     id="defs1"><inkscape:path-effect
       effect="fillet_chamfer"
       id="path-effect5"
       is_visible="true"
       lpeversion="1"
       nodesatellites_param="F,0,1,1,0,4.6990637,0,1 @ F,0,1,1,0,4.6990637,0,1 @ F,0,1,1,0,4.6990637,0,1 @ F,0,1,1,0,4.6990637,0,1 @ F,0,1,1,0,4.6990637,0,1 @ F,0,0,1,0,4.6990637,0,1 | F,0,0,1,0,0,0,1 @ F,0,0,1,0,0,0,1 @ F,0,0,1,0,0,0,1 @ F,0,0,1,0,0,0,1 @ F,0,0,1,0,0,0,1 @ F,0,0,1,0,0,0,1"
       radius="0"
       unit="px"
       method="auto"
       mode="F"
       chamfer_steps="1"
       flexible="false"
       use_knot_distance="true"
       apply_no_radius="true"
       apply_with_radius="true"
       only_selected="false"
       hide_knots="false" /><inkscape:path-effect
       effect="fillet_chamfer"
       id="path-effect4"
       is_visible="true"
       lpeversion="1"
       nodesatellites_param="F,0,0,1,0,2.7719543,0,1 @ F,0,1,1,0,2.7719543,0,1 @ F,0,1,1,0,2.7719543,0,1 @ F,0,1,1,0,2.7719543,0,1 @ F,0,1,1,0,2.7719543,0,1 @ F,0,1,1,0,2.7719543,0,1"
       radius="0"
       unit="px"
       method="auto"
       mode="F"
       chamfer_steps="1"
       flexible="false"
       use_knot_distance="true"
       apply_no_radius="true"
       apply_with_radius="true"
       only_selected="false"
       hide_knots="false" /><inkscape:path-effect
       effect="fillet_chamfer"
       id="path-effect3"
       is_visible="true"
       lpeversion="1"
       nodesatellites_param="F,0,0,1,0,0,0,1 @ F,0,0,1,0,0,0,1 @ F,0,0,1,0,0,0,1 @ F,0,0,1,0,0,0,1 @ F,0,0,1,0,0,0,1 @ F,0,0,1,0,0,0,1"
       radius="0"
       unit="px"
       method="auto"
       mode="F"
       chamfer_steps="1"
       flexible="false"
       use_knot_distance="true"
       apply_no_radius="true"
       apply_with_radius="true"
       only_selected="false"
       hide_knots="false" /><linearGradient
       id="linearGradient12"
       inkscape:collect="always"><stop
         style="stop-color:#00e31c;stop-opacity:0.25098041;"
         offset="0.49899355"
         id="stop12" /><stop
         style="stop-color:#57ef37;stop-opacity:0.43921569;"
         offset="0.49899355"
         id="stop13" /></linearGradient><linearGradient
       id="linearGradient4"
       inkscape:collect="always"><stop
         style="stop-color:#ffb164;stop-opacity:1;"
         offset="0"
         id="stop4" /><stop
         style="stop-color:#fff5c2;stop-opacity:1;"
         offset="1"
         id="stop5" /></linearGradient><linearGradient
       inkscape:collect="always"
       xlink:href="#linearGradient4"
       id="linearGradient5"
       x1="40.309914"
       y1="76.180878"
       x2="40.309914"
       y2="-2.7227073"
       gradientUnits="userSpaceOnUse" /><linearGradient
       inkscape:collect="always"
       xlink:href="#linearGradient12"
       id="linearGradient13"
       x1="41.026081"
       y1="-0.4549942"
       x2="41.026081"
       y2="69.820786"
       gradientUnits="userSpaceOnUse" /><clipPath
       clipPathUnits="userSpaceOnUse"
       id="clipPath5"><path
         id="path7"
         style="display:inline;fill:#000000;fill-opacity:1;stroke:none;stroke-width:1.16547;stroke-linecap:butt;stroke-linejoin:round;stroke-miterlimit:4.6;stroke-dasharray:none;stroke-opacity:1"
         d="M 18.232382,5.5694402 3.0117592,31.93056 a 8.1384699,8.1384699 90 0 0 0,8.13888 L 18.232382,66.430559 a 8.1392907,8.1392907 29.999166 0 0 7.048714,4.06944 h 30.437808 a 8.1392905,8.1392905 150.00083 0 0 7.048714,-4.06944 L 77.98824,40.06944 a 8.1384704,8.1384704 90 0 0 0,-8.13888 L 62.767618,5.5694402 A 8.1392904,8.1392904 29.999167 0 0 55.718904,1.5 H 25.281096 A 8.1392906,8.1392906 150.00083 0 0 18.232382,5.5694402 Z M 23.468749,6.5 H 57.53125 L 74.564454,36 57.53125,65.5 H 23.468749 L 6.4355466,36 Z"
         inkscape:label="mask"
         sodipodi:nodetypes="cccccccccccccc"
         inkscape:path-effect="#path-effect5"
         inkscape:original-d="M 20.582032,1.5 0.66210886,36 20.582032,70.499999 H 60.417968 L 80.33789,36 60.417968,1.5 Z m 2.886717,5 H 57.53125 L 74.564454,36 57.53125,65.5 H 23.468749 L 6.4355466,36 Z"
         transform="matrix(1.0456838,0,0,1.0456878,-2.7565892,-4.0188503)" /></clipPath><clipPath
       clipPathUnits="userSpaceOnUse"
       id="clipPath7"><path
         id="path8"
         style="display:inline;fill:#000000;fill-opacity:1;stroke:none;stroke-width:1.16547;stroke-linecap:butt;stroke-linejoin:round;stroke-miterlimit:4.6;stroke-dasharray:none;stroke-opacity:1"
         d="M 18.232382,5.5694402 3.0117592,31.93056 a 8.1384699,8.1384699 90 0 0 0,8.13888 L 18.232382,66.430559 a 8.1392907,8.1392907 29.999166 0 0 7.048714,4.06944 h 30.437808 a 8.1392905,8.1392905 150.00083 0 0 7.048714,-4.06944 L 77.98824,40.06944 a 8.1384704,8.1384704 90 0 0 0,-8.13888 L 62.767618,5.5694402 A 8.1392904,8.1392904 29.999167 0 0 55.718904,1.5 H 25.281096 A 8.1392906,8.1392906 150.00083 0 0 18.232382,5.5694402 Z M 23.468749,6.5 H 57.53125 L 74.564454,36 57.53125,65.5 H 23.468749 L 6.4355466,36 Z"
         inkscape:label="mask"
         sodipodi:nodetypes="cccccccccccccc"
         inkscape:path-effect="#path-effect5"
         inkscape:original-d="M 20.582032,1.5 0.66210886,36 20.582032,70.499999 H 60.417968 L 80.33789,36 60.417968,1.5 Z m 2.886717,5 H 57.53125 L 74.564454,36 57.53125,65.5 H 23.468749 L 6.4355466,36 Z"
         transform="matrix(1.0048899,0,0,1.0048899,-0.3879435,-1.4567321)" /></clipPath><clipPath
       clipPathUnits="userSpaceOnUse"
       id="clipPath8"><path
         id="path10"
         style="display:inline;fill:#000000;fill-opacity:1;stroke:none;stroke-width:1.16547;stroke-linecap:butt;stroke-linejoin:round;stroke-miterlimit:4.6;stroke-dasharray:none;stroke-opacity:1"
         d="M 18.232382,5.5694402 3.0117592,31.93056 a 8.1384699,8.1384699 90 0 0 0,8.13888 L 18.232382,66.430559 a 8.1392907,8.1392907 29.999166 0 0 7.048714,4.06944 h 30.437808 a 8.1392905,8.1392905 150.00083 0 0 7.048714,-4.06944 L 77.98824,40.06944 a 8.1384704,8.1384704 90 0 0 0,-8.13888 L 62.767618,5.5694402 A 8.1392904,8.1392904 29.999167 0 0 55.718904,1.5 H 25.281096 A 8.1392906,8.1392906 150.00083 0 0 18.232382,5.5694402 Z M 23.468749,6.5 H 57.53125 L 74.564454,36 57.53125,65.5 H 23.468749 L 6.4355466,36 Z"
         inkscape:label="mask"
         sodipodi:nodetypes="cccccccccccccc"
         inkscape:path-effect="#path-effect5"
         inkscape:original-d="M 20.582032,1.5 0.66210886,36 20.582032,70.499999 H 60.417968 L 80.33789,36 60.417968,1.5 Z m 2.886717,5 H 57.53125 L 74.564454,36 57.53125,65.5 H 23.468749 L 6.4355466,36 Z"
         transform="matrix(0.54321215,0,0,0.54321215,-4.3005604,-17.509449)" /></clipPath></defs><sodipodi:namedview
     id="namedview1"
     pagecolor="#ffffff"
     bordercolor="#111111"
     borderopacity="1"
     inkscape:showpageshadow="0"
     inkscape:pageopacity="0"
     inkscape:pagecheckerboard="1"
     inkscape:deskcolor="#d1d1d1"
     inkscape:zoom="6.8267548"
     inkscape:cx="41.89399"
     inkscape:cy="41.454543"
     inkscape:window-width="1290"
     inkscape:window-height="1011"
     inkscape:window-x="50"
     inkscape:window-y="0"
     inkscape:window-maximized="0"
     inkscape:current-layer="layer1" /><g
     inkscape:groupmode="layer"
     id="layer1"
     inkscape:label="Layer"><path
       sodipodi:type="star"
       style="display:inline;fill:url(#linearGradient13);stroke:none;stroke-width:1;stroke-linecap:butt;stroke-linejoin:round;stroke-miterlimit:4.6;stroke-dasharray:none;stroke-opacity:1"
       id="path12"
       inkscape:flatsided="true"
       sodipodi:sides="6"
       sodipodi:cx="41.026081"
       sodipodi:cy="34.682896"
       sodipodi:r1="35.13789"
       sodipodi:r2="30.430305"
       sodipodi:arg1="1.0471976"
       sodipodi:arg2="1.5707963"
       inkscape:rounded="-3.469447e-18"
       inkscape:randomized="0"
       d="M 58.595025,65.113202 23.457135,65.1132 5.8881912,34.682894 23.457138,4.2525895 l 35.13789,1.8e-6 17.568943,30.4303057 z"
       inkscape:label="fill"
       transform="matrix(0.98585929,0,0,0.98585929,0.05405683,1.8075451)" /><path
       sodipodi:type="star"
       style="display:inline;fill:#ffffff;fill-opacity:1;stroke:none;stroke-width:1;stroke-linecap:butt;stroke-linejoin:round;stroke-miterlimit:4.6;stroke-dasharray:none;stroke-opacity:1"
       id="path5"
       inkscape:flatsided="true"
       sodipodi:sides="6"
       sodipodi:cx="17.699532"
       sodipodi:cy="2.0461886"
       sodipodi:r1="21.953657"
       sodipodi:r2="19.012424"
       sodipodi:arg1="1.0471976"
       sodipodi:arg2="1.5707963"
       inkscape:rounded="-3.469447e-18"
       inkscape:randomized="0"
       d="M 28.676359,21.058614 6.7227021,21.058613 -4.2541256,2.0461875 6.7227039,-16.966237 l 21.9536571,1e-6 10.976828,19.0124257 z"
       transform="matrix(1.8409014,0,0,1.8409014,7.9169076,32.233169)"
       inkscape:label="upper light"
       clip-path="url(#clipPath8)" /><path
       sodipodi:type="star"
       style="display:inline;fill:url(#linearGradient5);fill-opacity:1;stroke:none;stroke-width:1;stroke-linecap:butt;stroke-linejoin:round;stroke-miterlimit:4.6;stroke-dasharray:none;stroke-opacity:1"
       id="path4"
       inkscape:flatsided="true"
       sodipodi:sides="6"
       sodipodi:cx="40.309914"
       sodipodi:cy="36.729084"
       sodipodi:r1="39.451794"
       sodipodi:r2="34.166256"
       sodipodi:arg1="-1.0471976"
       sodipodi:arg2="-0.52359878"
       inkscape:rounded="-3.469447e-18"
       inkscape:randomized="0"
       d="M 60.035809,2.5628275 79.761707,36.729082 60.035812,70.895339 20.584018,70.895341 0.85811996,36.729086 20.584015,2.5628294 Z"
       transform="matrix(0.9951339,0,0,0.9951339,0.38605573,1.4496435)"
       inkscape:label="shadow"
       clip-path="url(#clipPath7)" /><path
       sodipodi:type="star"
       style="display:inline;fill:#ffffff;fill-opacity:1;stroke:none;stroke-width:1;stroke-linecap:butt;stroke-linejoin:round;stroke-miterlimit:4.6;stroke-dasharray:none;stroke-opacity:1"
       id="path6"
       inkscape:flatsided="true"
       sodipodi:sides="6"
       sodipodi:cx="39.593746"
       sodipodi:cy="35.194443"
       sodipodi:r1="36.827415"
       sodipodi:r2="31.893476"
       sodipodi:arg1="1.0471976"
       sodipodi:arg2="1.5707963"
       inkscape:rounded="-3.469447e-18"
       inkscape:randomized="0"
       d="m 58.007452,67.087921 -36.827415,-2e-6 L 2.7663307,35.194441 21.18004,3.3009645 l 36.827415,1.8e-6 18.413707,31.8934787 z"
       transform="matrix(0.95631202,0,0,0.95630836,2.6361594,3.8432601)"
       inkscape:label="lower light"
       clip-path="url(#clipPath5)" /><path
       id="path1"
       style="display:inline;fill:none;fill-opacity:0.25098;stroke:#6f2f20;stroke-width:0.97784;stroke-linejoin:round;stroke-miterlimit:4.6"
       inkscape:label="outer frame"
       transform="matrix(1.0226621,0,0,1.0226621,-0.73373556,-0.07951764)"
       d="M 61.183075,3.9452532 77.888223,32.879414 a 4.8011658,4.8011658 89.999997 0 1 0,4.801166 L 61.183079,66.614742 a 4.8011656,4.8011656 150 0 1 -4.157931,2.400583 l -33.410293,2e-6 A 4.8011657,4.8011657 29.999997 0 1 19.456924,66.614744 L 2.7517763,37.680584 a 4.8011656,4.8011656 89.999997 0 1 -3e-7,-4.801166 L 19.456921,3.9452552 a 4.8011657,4.8011657 150 0 1 4.157931,-2.400583 l 33.410292,-1.7e-6 a 4.8011657,4.8011657 29.999997 0 1 4.157931,2.4005827 z"
       sodipodi:nodetypes="ccccccc"
       inkscape:path-effect="#path-effect4"
       inkscape:original-d="M 59.797098,1.5446704 79.2742,35.279997 59.797102,69.015325 20.842901,69.015327 1.365799,35.280001 20.842898,1.5446723 Z" /><path
       sodipodi:type="star"
       style="display:inline;fill:none;fill-opacity:0.25098;stroke:#6f2f20;stroke-width:1.14357;stroke-linecap:butt;stroke-linejoin:round;stroke-miterlimit:4.6;stroke-dasharray:none;stroke-opacity:1"
       id="path2"
       inkscape:flatsided="true"
       sodipodi:sides="6"
       sodipodi:cx="40.32"
       sodipodi:cy="35.279999"
       sodipodi:r1="38.954201"
       sodipodi:r2="33.735329"
       sodipodi:arg1="-1.0471976"
       sodipodi:arg2="-0.52359878"
       inkscape:rounded="-3.469447e-18"
       inkscape:randomized="0"
       d="M 59.797098,1.5446704 79.2742,35.279997 59.797102,69.015325 20.842901,69.015327 1.365799,35.280001 20.842898,1.5446723 Z"
       inkscape:label="inner frame"
       transform="matrix(0.8744548,0,0,0.8744548,5.2419827,5.1492357)" /></g></svg>
